<?xml version="1.0" encoding="UTF-8"?><svg xmlns="http://www.w3.org/2000/svg" viewBox="0 0 1529 827"><defs><style>.d{fill:#015c69;}</style></defs><g id="a"/><g id="b"><g id="c"><path class="d" d="M1522.44,29.67c-8.28-.52-16.47,1.36-23.38,5.18-45.75,25.28-115.25,23.85-166.34,8.92-42.58-12.45-82.83-39.62-127.2-33.44-40.5,5.63-68.89,37.02-109.44,42.07-60.23,7.5-100.37-47.68-159.65-44.59-51.84,2.7-90.83,43.52-144.95,36.82C742.47,38.54,706.63-.99,655.4,.02c-55.38,1.1-92.96,55.7-150.73,43.22-40.76-8.8-72.62-47.63-117.68-40.94-37.69,5.6-58.77,43.75-99.63,41.15-39.78-2.54-63.17-41.25-104.05-41.17-38.54,.07-57.07,31.72-85.52,47.86-13.99,7.94-31.33,12.54-47.6,9.23-13.02-2.65-24.72-11.29-28.78-22.05-1.91-5.06-7.68-8.41-14.05-8.41H0V827H1529V30.08l-6.56-.42Z"/></g></g></svg>