<svg width="522" height="325" viewBox="0 0 522 325" fill="none" xmlns="http://www.w3.org/2000/svg">
<g clip-path="url(#clip0_236_50)">
<g opacity="0.7">
<path d="M359.08 0.68C358.72 0.45 358.36 0.23 358.01 0C358.37 0.23 358.73 0.45 359.08 0.68Z" fill="#5b878e"/>
<path d="M167.44 184.11C167.02 183.42 166.61 182.73 166.19 182.03C168.69 181.47 167 183.43 167.44 184.11Z" fill="#5b878e"/>
<path d="M464.46 45.3399C464.15 45.3799 463.84 45.4199 463.53 45.4599C463.16 44.7899 462.83 44.5299 462.61 45.5399C461.41 46.8499 460.31 45.9199 459.19 45.3899C461.73 41.4499 456.99 41.3099 455.97 39.2199C456.38 38.9099 456.79 38.6099 457.2 38.3099C463.55 36.5899 464.08 40.8899 464.46 45.3399Z" fill="#5b878e"/>
<path d="M457.2 38.31C456.79 38.61 456.38 38.91 455.97 39.22C455.62 38.82 455.27 38.4199 454.92 38.0099C454.94 36.1799 453.68 35.3199 452.3 34.5299C450.36 33.4199 449.24 31.82 449.46 29.4799C450.4 29.0599 450.54 28.2 450.63 27.32C451.69 26.95 452.74 26.57 453.8 26.2C453.8 26.2 453.79 26.23 453.79 26.24C453.06 28.75 452.42 31.1399 455.08 33.1699C456.64 34.3599 457.23 36.29 457.2 38.31Z" fill="#5b878e"/>
<path d="M449.46 29.48C449.24 31.82 450.35 33.41 452.29 34.53C453.67 35.32 454.93 36.18 454.91 38.01C452.45 37.8 450.72 36.12 449.07 34.66C447.32 33.11 445.81 30.93 449.45 29.47L449.46 29.48Z" fill="#5b878e"/>
<path d="M434.63 34.67C431.85 34.62 429.13 34.71 427.91 37.91C425.69 34.55 428.42 33.71 430.6 32.55C433.02 31.26 434.23 32.18 434.63 34.67Z" fill="#5b878e"/>
<path d="M439.95 45.5099C436.72 43.1099 436.2 39.4999 435.63 35.8999C439.95 37.8099 439.46 41.8799 439.95 45.5099Z" fill="#5b878e"/>
<path d="M457.06 45.3198C454.92 45.7098 452.79 46.1098 450.65 46.4998C452.3 43.4798 454.15 41.5398 457.06 45.3198Z" fill="#5b878e"/>
<path d="M449.92 46.74C449.49 47.14 449.05 47.54 448.62 47.95C448.74 47.21 449.18 46.81 449.92 46.74Z" fill="#5b878e"/>
<path d="M456 25.17C455.52 26.08 454.7 26.25 453.79 26.24H453.77L453.8 26.2C454.31 25.38 455.1 25.16 456 25.17Z" fill="#5b878e"/>
<path d="M463.53 45.46C463.23 45.51 462.92 45.53 462.61 45.54C462.83 44.53 463.16 44.79 463.53 45.46Z" fill="#5b878e"/>
<path d="M520.05 163.07C519.07 181.84 514.18 199.71 506.98 216.94C501.29 230.54 493.87 243.21 484.8 254.86C484.04 255.83 483.5 257 482.17 257.34C478.96 257.38 477.41 255.74 477.18 252.58C476.99 249.81 476.62 247.04 476.33 244.28C477.06 238.81 472.31 235.89 470.45 231.63C469.87 229.76 469.88 227.89 470.45 226.02C472.19 224.37 470.84 222.6 470.4 221.05C469.67 218.44 467.5 216.32 467.74 213.35C467.1 209.24 470.66 206.54 471.13 202.55C472.26 192.97 465.14 186.82 462.41 178.9C462.08 177.92 460.57 178.07 459.51 178.07C459.45 175.93 459.39 173.78 459.33 171.63C463.35 171.67 463.23 168.39 463.26 165.98C463.29 163.32 461.18 161.97 458.52 162.04C456.12 162.11 453.63 161.64 451.9 160.35C446.77 156.53 440.77 156.94 435.54 158.1C431.23 159.05 426.86 157.71 422.66 159.73C417.92 162.01 413.36 159.25 408.86 157.79C408.51 157.41 408.16 157.04 407.81 156.66C407.76 154.61 408.37 152.63 406.18 150.91C399 145.26 397.17 138.24 401.31 129.8C402.46 127.47 403.44 124.97 400.66 122.61C397.86 120.22 398.08 117.88 401.69 116.22C402.95 115.64 404.02 114.67 405.2 113.92C411.43 109.99 417.73 106.49 417.82 97.42C417.86 93.77 421.66 92.15 425.64 93.17C429.27 94.11 432.43 93.97 433.57 89.51C435.83 89.04 438.12 88.67 440.35 88.08C446.52 86.44 452.67 84.73 459.16 85.89L459.37 86.15C459.32 92.84 462.33 96.52 469.27 97.22C472.16 97.51 474.95 99.03 477.7 100.19C480.14 101.22 481.4 100.57 481.73 97.99C482.49 97.59 483.25 97.19 484.02 96.79C483.92 96.51 483.86 96.22 483.86 95.93C486.24 95.71 488.71 93.67 491 95.66C497.67 101.43 505.66 101.29 513.7 101.06C515.27 103.32 515.8 105.87 515.86 108.56C515.07 109.13 514.75 109.88 514.97 110.85C518.52 126.58 519.56 142.52 519.06 158.6C519.01 160.13 518.61 161.83 520.05 163.07Z" fill="#5b878e"/>
<path d="M508.41 85.98C499.41 86.39 498.43 85.77 496.13 79.22C495.55 77.58 495.98 74.65 493.24 74.82C490.97 74.96 489.85 77.13 489.12 79.21C488.89 79.88 488.73 80.58 488.46 81.23C487.21 84.22 485.51 84.53 483.42 82C482.06 80.36 480.35 78.62 480.66 76.45C481.13 73.09 479.08 71.21 477.28 69.07C476.81 66.57 473.61 66.37 473 63.98C470.45 64.17 466.93 61.86 465.68 65.63C464.56 69.01 467.27 71.09 469.94 72.74C470.68 73.19 471.33 73.78 472.02 74.3C471.92 75.59 471.82 76.87 471.73 78.15C471.38 78.07 471.11 77.89 470.91 77.6C470.49 77.28 470.06 76.95 469.63 76.63C468.02 75.82 466.41 75.02 464.81 74.22C463.1 72.64 461.66 70.73 459.34 69.94C459.11 68.06 457.73 67.49 456.32 68.1C451.91 70.03 447.06 71.26 443.82 75.24C442.67 75.45 442.13 76.2 441.97 77.3C440.52 78.53 438.99 79.7 438.9 81.85C438.46 82.54 438.02 83.23 437.58 83.93C434.15 85.5 430.65 86.56 426.78 86.16C421.35 85.61 418.6 82.68 418.43 77.03C418.28 71.57 420.51 69.22 426.31 68.37C428.72 68.01 430.84 69.08 433.12 69.29C436.75 69.64 438.05 67.98 436.57 64.64C436.07 63.54 435.21 62.6 434.52 61.59C434.46 60.83 434.41 60.07 434.35 59.31C435.5 57.66 436.79 56.22 439.01 56.14C443.79 55.97 446.37 53.17 447.7 48.87C448.01 48.56 448.31 48.26 448.62 47.95C449.05 47.54 449.49 47.14 449.92 46.74C450.19 46.74 450.43 46.67 450.65 46.5C452.79 46.11 454.92 45.71 457.06 45.32C457.77 45.34 458.48 45.37 459.19 45.39C460.31 45.92 461.41 46.85 462.61 45.54C462.92 45.53 463.23 45.51 463.53 45.46C463.84 45.42 464.15 45.38 464.46 45.34C464.08 40.89 463.55 36.59 457.2 38.31C457.23 36.29 456.64 34.36 455.08 33.17C452.42 31.14 453.06 28.75 453.79 26.24C454.7 26.25 455.52 26.08 456 25.17C458.25 23.73 460.5 22.28 462.74 20.83C463.95 20.7 464.72 21.45 465.48 22.2C483.19 39.69 497.94 59.24 507.52 82.4C507.98 83.52 508.12 84.78 508.41 85.98Z" fill="#5b878e"/>
<path d="M453.8 26.2C453.8 26.2 453.79 26.23 453.79 26.24H453.77L453.8 26.2Z" fill="#5b878e"/>
<path d="M520.76 157.3C520.64 159.23 520.29 161.15 520.05 163.07C518.61 161.83 519.01 160.13 519.06 158.6C519.56 142.52 518.52 126.58 514.97 110.85C514.75 109.88 515.07 109.13 515.86 108.56C520.5 124.5 521.78 140.79 520.76 157.3Z" fill="#5b878e"/>
<path d="M433.57 89.51C432.43 93.97 429.27 94.11 425.64 93.17C421.66 92.15 417.86 93.77 417.82 97.42C417.73 106.49 411.43 109.99 405.2 113.92C404.02 114.67 402.95 115.64 401.69 116.22C398.08 117.88 397.86 120.22 400.66 122.61C403.44 124.97 402.46 127.47 401.31 129.8C397.17 138.24 399 145.26 406.18 150.91C408.37 152.63 407.76 154.61 407.81 156.66C401.89 150.55 395.2 144.85 397.21 134.84C397.53 133.29 397.43 131.71 398.54 130.35C400.95 127.42 401.1 124.89 397.69 122.27C395.21 120.36 395.78 117.97 398.32 116.09C402.17 113.23 405.78 110.02 409.81 107.46C413.34 105.23 414.95 102.22 415.32 98.3C415.89 92.26 418.34 89.87 424.39 89.57C427.06 89.44 429.73 89.36 432.39 89.26C432.79 89.35 433.18 89.43 433.57 89.51Z" fill="#5b878e"/>
<path d="M447.7 48.87C446.37 53.17 443.79 55.97 439.01 56.14C436.79 56.22 435.5 57.66 434.35 59.31C433.28 58.15 433.27 56.08 430.86 56.07C429.08 56.06 428.16 54.85 428.77 52.82C429.89 49.12 427.1 49.97 425.18 49.86C426.33 48.78 427.6 47.81 428.6 46.6C429.59 45.41 429.83 43.74 428.46 42.84C426.55 41.58 424.35 41.83 422.5 43.2C420.77 44.48 418.93 46.04 419.77 48.47C420.69 51.14 422.93 50.71 425.06 49.97C423.47 53.04 420.18 53.92 418.07 52.31C415.41 50.29 417.3 46.81 418.44 44.27C420.35 40.02 424.69 40.6 428.37 40.03C432.7 42.26 436.95 44.35 431.23 49.72C429.43 51.41 430.82 53.12 432.84 53.59C435.25 54.14 437.9 54.46 440.12 53.23C443.15 51.55 444.48 49.43 440.12 47.54L440.07 47.51C440.03 46.84 439.99 46.17 439.95 45.51C442.97 45.63 444.31 49.62 447.7 48.87Z" fill="#5b878e"/>
<path d="M463.26 165.98C463.23 168.39 463.35 171.67 459.33 171.63C460.21 166.37 457.18 165.3 452.91 162.8C443.05 157.02 434.14 162.24 424.86 162.51C423.45 162.55 422.02 162.64 420.63 162.9C415.53 163.86 411.62 162.18 408.86 157.79C413.36 159.25 417.92 162.01 422.66 159.73C426.86 157.71 431.23 159.05 435.54 158.1C440.77 156.94 446.77 156.53 451.9 160.35C453.63 161.64 456.12 162.11 458.52 162.04C461.18 161.97 463.29 163.32 463.26 165.98Z" fill="#5b878e"/>
<path d="M440.12 47.5401C444.48 49.4301 443.16 51.5501 440.12 53.2301C437.9 54.4601 435.25 54.1401 432.84 53.5901C430.82 53.1301 429.43 51.4101 431.22 49.7301C436.94 44.3601 432.7 42.2601 428.37 40.0401C428.22 39.3301 428.06 38.6201 427.91 37.9201C429.13 34.7201 431.85 34.6301 434.63 34.6801C434.96 35.0901 435.29 35.5001 435.63 35.9201C436.2 39.5201 436.72 43.1301 439.95 45.5301C439.99 46.2001 440.03 46.8601 440.07 47.5301C438.74 48.3301 436.63 45.2901 435.81 48.3401C435.52 49.4001 435.91 50.4501 437.2 50.7101C439.84 51.2401 439.91 49.3201 440.12 47.5601V47.5401Z" fill="#5b878e"/>
<path d="M470.45 226.02C469.63 223.52 469.21 220.77 466.36 219.54C464.56 218.77 464.64 217.01 464.28 215.5C464.5 212.98 465.23 210.71 466.67 208.55C470.72 202.49 469.88 196.52 465.98 190.71C463.32 186.75 460.17 183.05 459.51 178.07C460.57 178.07 462.08 177.92 462.41 178.9C465.14 186.82 472.26 192.97 471.13 202.55C470.66 206.54 467.1 209.24 467.74 213.35C467.5 216.32 469.67 218.44 470.4 221.05C470.84 222.6 472.19 224.37 470.45 226.02Z" fill="#5b878e"/>
<path d="M476.33 244.28C473.41 240.51 469.17 237.35 470.45 231.63C472.31 235.89 477.06 238.81 476.33 244.28Z" fill="#5b878e"/>
<path d="M484.02 96.7899C483.25 97.1899 482.49 97.5899 481.73 97.9899C481.54 96.3599 481.58 94.8699 483.73 94.6299C483.77 95.0599 483.81 95.4999 483.86 95.9299C483.86 96.2199 483.92 96.5099 484.02 96.7899Z" fill="#5b878e"/>
<path d="M476.12 76.78C475.75 78.66 475.48 80.57 474.99 82.41C474.36 84.8 469.87 86.09 468.12 84.42C466.62 83 467.8 82.31 468.99 81.77C470.59 81.05 472.49 80.62 471.73 78.15C471.82 76.87 471.92 75.59 472.02 74.3C473.85 74.37 474.89 75.73 476.12 76.78Z" fill="#5b878e"/>
<path d="M459.34 69.94C455.63 69.77 452.83 72.02 449.76 73.54C447.89 74.46 446.01 75.39 443.82 75.24C447.06 71.26 451.91 70.03 456.32 68.1C457.73 67.49 459.11 68.06 459.34 69.94Z" fill="#5b878e"/>
<path d="M464.81 74.2199C461.6 74.5599 458.37 74.9299 459.34 69.9399C461.66 70.7299 463.1 72.6399 464.81 74.2199Z" fill="#5b878e"/>
<path d="M438.9 81.85C438.99 79.7 440.52 78.53 441.97 77.3C442.19 79.66 442.56 82.12 438.9 81.85Z" fill="#5b878e"/>
<path d="M440.12 47.5399C439.91 49.2999 439.83 51.2199 437.2 50.6899C435.91 50.4299 435.53 49.3799 435.81 48.3199C436.63 45.2699 438.74 48.3199 440.07 47.5099L440.12 47.5399Z" fill="#5b878e"/>
<path d="M53.4497 27C53.0897 31.08 50.3497 31.73 46.9897 31.48C48.7297 29.38 50.4797 27.31 53.4497 27Z" fill="#5B878E"/>
<path d="M46.0096 31.9201C45.8696 33.0801 45.1696 33.6001 44.0596 33.6601C44.0896 32.3901 44.6496 31.7001 46.0096 31.9201Z" fill="#5B878E"/>
<path d="M162.79 36.1301C161.54 38.6001 159.12 37.6001 157.19 38.0701C156.52 38.1701 155.45 38.0101 155.21 38.3901C150.82 45.3701 145.29 41.7801 139.89 40.2201C138.12 39.7101 138.81 38.9001 139.14 37.9601C139.27 37.8101 139.35 37.6301 139.37 37.4301C140.36 37.0501 141.49 36.8601 142.31 36.2501C144.1 34.9201 147.9 35.0901 146.92 31.5501C146.03 28.3701 142.76 28.4801 140.22 28.5401C132.69 28.7401 127.29 33.3701 121.91 37.9401C121.54 37.9301 121.18 37.9201 120.81 37.9101C121.36 35.5601 122.94 33.1101 118.94 31.8901C118.63 31.8001 118.37 31.6501 118.17 31.4601C118.04 31.3301 117.93 31.1901 117.84 31.0401C117.76 30.8801 117.7 30.7101 117.67 30.5301C117.63 30.2801 117.64 30.0101 117.72 29.7501C117.8 29.4901 117.92 29.2201 118.11 28.9701H118.12C118.18 28.8801 118.25 28.7901 118.33 28.7101C118.41 28.6301 118.49 28.5401 118.58 28.4701C118.67 28.3901 118.76 28.3101 118.87 28.2401C122.96 31.2801 124.96 30.6901 126.2 25.9001C126.82 23.5501 127.62 21.5301 130.24 20.8401C135.55 19.4401 140.83 17.7801 146.38 19.6201C148.92 20.7801 151.44 21.9801 154 23.0801C156.85 24.3101 159.36 25.7501 159.46 29.3801C159.47 30.0301 159.75 30.8001 160.17 31.2701C161.44 32.7001 164.28 33.1901 162.79 36.1301Z" fill="#5B878E"/>
<path d="M118.81 25.1602C116.49 23.1902 114.04 20.5802 113.21 26.2502C111.47 24.8702 109.63 23.5502 110.16 20.8802C110.89 20.4802 111.62 20.0902 112.35 19.6902C113.94 19.7302 115.56 19.6402 117.13 19.8502C118.94 20.1002 121.7 18.7302 122.34 20.9702C122.84 22.7702 120.28 23.9502 118.81 25.1602Z" fill="#5B878E"/>
<path d="M109.59 32.33C105.75 32.41 102.54 34.52 98.9397 34.6C96.6697 34.65 97.2096 36.66 96.3496 37.66C94.5396 36.18 95.4496 34.47 95.1396 33.03C100.61 33.09 105.43 30.38 110.64 29.36C112.43 29.01 112.56 27.48 113.17 26.26C116.17 30.74 112.29 32.27 109.59 32.33Z" fill="#5B878E"/>
<path d="M116.69 42.0501C114.2 41.3101 111.84 39.4101 109.07 41.1901C108.02 41.2101 106.98 41.2301 105.93 41.2501L105.79 41.0601C108.59 38.9601 111.74 37.9401 115.24 38.0301C115.72 39.3701 116.21 40.7101 116.69 42.0501Z" fill="#5B878E"/>
<path d="M119.68 42.1302V42.1102C118.67 42.1002 117.65 42.1002 116.63 42.0902L116.69 42.0502C116.21 40.7102 115.72 39.3702 115.24 38.0302C117.09 37.8902 118.99 39.5102 120.81 37.9102C121.18 37.9202 121.54 37.9302 121.91 37.9402C121.17 39.3302 120.42 40.7302 119.68 42.1302Z" fill="#5B878E"/>
<path d="M103.86 42.3502C103.59 44.2602 102.13 44.3802 100.65 44.4802L100.39 44.2102C101.19 43.0302 102.24 42.2702 103.7 42.1802L103.86 42.3502Z" fill="#5B878E"/>
<path d="M100.65 44.4802C100.6 45.1402 100.54 45.7902 100.49 46.4502C99.3997 46.4202 98.3197 46.3902 97.2297 46.3702H97.1997C97.1997 46.3702 97.2097 46.3502 97.2197 46.3402C97.8697 45.0302 99.0197 44.4602 100.39 44.2102L100.65 44.4802Z" fill="#5B878E"/>
<path d="M105.93 41.2501C105.24 41.6101 104.55 41.9801 103.86 42.3501L103.7 42.1801C104.4 41.8101 105.09 41.4301 105.79 41.0601L105.93 41.2501Z" fill="#5B878E"/>
<path d="M97.24 46.34C97.24 46.34 97.23 46.36 97.23 46.37C96.84 47.44 95.95 47.52 95 47.49C95.44 46.5 96.28 46.33 97.22 46.34H97.24Z" fill="#5B878E"/>
<path d="M103.85 42.3402C104.54 41.9702 105.23 41.6102 105.93 41.2402C106.97 41.2202 108.02 41.2002 109.06 41.1802C107.91 45.7102 105.33 47.9302 100.48 46.4402C100.53 45.7802 100.59 45.1302 100.64 44.4802C102.12 44.3802 103.58 44.2602 103.84 42.3402H103.85Z" fill="#5B878E"/>
<path d="M116.63 42.0901C117.65 42.0901 118.66 42.1001 119.68 42.1101C119.68 43.1801 119.42 44.1601 118.14 44.1501C116.86 44.1501 116.62 43.1501 116.63 42.0901Z" fill="#5B878E"/>
<path d="M157.88 74.4501C157.62 74.4901 157.39 74.4301 157.18 74.2801C153.57 73.2201 152.46 71.4501 156.11 69.1201C160.15 66.5401 160.07 64.1201 156.49 61.3201C154.19 59.5201 152.19 57.3701 152.1 54.3301C151.97 50.1501 150.07 50.0201 146.96 51.5201C143.15 53.3601 140.05 54.0001 140.17 47.9201C140.25 44.1201 136.95 43.7201 134.17 43.1901C130.33 42.4601 125.9 43.2501 125.58 47.2401C124.95 55.1801 120.74 59.6501 114.27 62.9801C113.52 63.3601 113.01 64.2001 112.38 64.8201C112.17 66.9401 111.06 68.1201 108.88 67.7901C106.9 67.4901 107.06 65.7901 107.19 64.4401C107.61 60.0701 104.67 58.9701 101.35 58.4501C97.9798 57.9101 95.3498 56.5301 93.7698 53.4001C92.5998 51.0701 92.3898 49.0001 94.9998 47.4901C95.4398 46.5001 96.2798 46.3301 97.2198 46.3401C97.8698 45.0301 99.0198 44.4601 100.39 44.2101C101.19 43.0301 102.24 42.2701 103.7 42.1801C104.4 41.8101 105.09 41.4301 105.79 41.0601C108.59 38.9601 111.74 37.9401 115.24 38.0301C117.09 37.8901 118.99 39.5101 120.81 37.9101C121.36 35.5601 122.94 33.1101 118.94 31.8901C118.63 31.8001 118.37 31.6501 118.17 31.4601C118.03 31.3301 117.92 31.1901 117.84 31.0401C117.76 30.8801 117.7 30.7101 117.67 30.5301C117.63 30.2801 117.64 30.0101 117.72 29.7501C117.8 29.4901 117.92 29.2201 118.11 28.9701H118.12C118.19 28.8701 118.26 28.7901 118.33 28.7101C118.41 28.6301 118.49 28.5401 118.58 28.4701C118.67 28.3901 118.77 28.3101 118.87 28.2401H118.88C118.85 27.2101 118.83 26.1801 118.81 25.1601C116.49 23.1901 114.04 20.5801 113.21 26.2501H113.17C116.17 30.7401 112.29 32.2701 109.59 32.3301C105.75 32.4101 102.54 34.5201 98.9398 34.6001C96.6698 34.6501 97.2098 36.6601 96.3498 37.6601C94.5398 36.1801 95.4498 34.4701 95.1398 33.0301C93.1498 32.2901 92.5898 30.8001 92.9898 28.8601C93.3898 26.8901 95.0898 26.7501 96.5998 26.4301C100.366 25.6301 102.853 23.9301 104.06 21.3301C102.63 20.2901 101.03 21.1801 99.5398 20.9401C95.9098 24.6801 93.7598 24.5301 89.7098 20.3001C85.2298 15.6301 78.1798 15.1801 73.6798 19.3901C72.3598 20.6201 70.9898 21.1501 73.5498 23.6301C76.5798 26.5801 79.1198 29.1701 83.4898 29.3501C84.6798 29.4101 85.4198 30.1701 85.4398 31.4401C85.4398 32.7401 84.6498 33.3801 83.4598 33.4601C81.1898 33.6101 78.7998 34.2301 76.7498 32.7301C72.3298 29.4801 67.1798 28.1301 61.9298 27.3001C59.3198 26.8901 58.8398 25.4401 58.6298 23.3901C56.4398 23.9301 55.1498 25.7501 53.4498 27.0001C53.0898 31.0801 50.3498 31.7301 46.9898 31.4801C46.6598 31.6301 46.3398 31.7701 46.0098 31.9201C45.8698 33.0801 45.1698 33.6001 44.0598 33.6601C43.8298 33.8501 43.6898 34.0901 43.6498 34.3801C30.4198 45.0301 19.3098 57.5401 10.3898 71.9901C11.9298 72.0401 13.4698 72.0901 15.0098 72.1301C15.4098 71.0001 15.7198 69.8201 16.2298 68.7401C16.7698 67.5801 17.6598 66.6601 19.0898 67.0501C20.6898 67.4901 20.2098 68.9801 20.4298 70.1001C20.0698 70.7901 19.7098 71.4801 19.3498 72.1701C18.4598 74.4001 18.6498 77.1701 16.0998 78.5601C16.0698 79.2701 16.0498 79.9801 16.0198 80.6901C15.6898 84.9601 18.3698 83.0801 20.2798 82.7801C21.8598 83.9501 21.9698 86.4601 21.1498 86.9701C16.7098 89.7101 15.9798 94.7801 13.2398 98.5301C13.0098 98.8301 12.2398 98.7401 11.7298 98.8301C10.3298 99.9301 8.93978 101.03 7.53978 102.13C7.53978 102.47 7.53979 102.81 7.52979 103.15C7.52979 104.21 7.53978 105.28 7.53978 106.34H9.65978C13.0998 107.02 11.3498 109.79 11.7998 111.67C13.2298 111.75 13.9598 112.45 13.8098 113.9C16.5398 119.04 19.2398 124.2 20.3098 130.02C20.5798 130.35 20.8498 130.68 21.1198 131.02C25.0498 131.02 24.6698 133.77 24.4998 136.38C27.7598 140.08 26.0498 144.73 26.8598 148.91C26.8698 148.91 26.9398 149.01 26.9398 149.01C28.6798 149.22 30.4698 149.27 32.1698 149.67C37.7798 151.01 43.3498 152.49 49.1898 151.25C53.5798 147.82 56.2798 152.94 59.9098 153.36C59.7098 152.58 59.4798 151.8 59.3298 151C59.3198 150.95 59.9198 150.62 60.1098 150.71C61.2998 151.26 60.8098 152.4 60.9598 153.33C61.6898 156.8 64.4498 155.08 66.3898 155.44C62.3398 152.71 63.0298 146.09 57.4898 144.58C57.1598 144.63 56.8798 144.77 56.6398 145C56.9298 147.41 55.7298 148.24 53.4998 147.97C52.7598 147.97 52.0298 147.98 51.2898 147.98C50.8998 147.95 50.5098 147.93 50.1198 147.9L48.2298 147.75C45.7098 149.88 44.0698 149.76 43.8298 146.04C43.1498 145.23 42.4698 144.43 41.7898 143.63C37.2298 143.14 38.3198 139.69 38.8198 137.17C40.9498 126.58 51.6598 118.17 62.4998 118.04C67.0798 117.98 71.6998 118.67 76.2498 117.51C77.7598 117.13 77.9398 118.32 77.9298 119.47C77.9898 120.05 78.0398 120.62 78.0898 121.19C79.4998 122.75 78.9298 124.73 79.2398 126.52C80.9598 126.93 82.6898 127.33 84.4098 127.74L84.5898 127.63C84.8698 127.36 85.1598 127.09 85.4398 126.82C85.5098 126.39 85.5798 125.97 85.6498 125.54C83.4898 119.05 86.5398 114.19 95.0798 110.5V110.52C101.73 104.99 104.53 96.1801 111.79 91.0501C113.32 89.9701 114.7 88.6901 116.49 88.0001C116.84 87.6901 117.19 87.3801 117.55 87.0701C118.54 85.4101 119.88 84.1901 121.78 83.6601C122.14 83.3601 122.5 83.0701 122.87 82.7701C124.65 80.8201 126.67 79.2401 129.35 78.7101C129.83 77.8501 130.65 77.6201 131.56 77.5001C134.51 77.1201 137.25 76.6901 132.82 73.7501C131.46 72.8501 131.09 71.4701 132.23 70.1101C133.54 68.5501 135.32 68.5101 137.08 69.1201C139.53 69.9701 141.33 72.4301 144.28 72.0701C145.54 71.4601 146.76 70.7101 148.07 70.2501C149.94 69.6001 150.97 70.0501 151.08 72.4001C151.36 78.4401 152.79 79.5701 159.24 79.4901C159.63 78.7801 160.02 78.0801 160.42 77.3701C159.57 76.4001 158.73 75.4201 157.88 74.4501ZM22.3998 80.6301C23.2198 79.3001 23.6598 77.5901 25.5998 77.3501C27.8198 81.6501 24.4198 80.4601 22.3998 80.6301ZM142.35 64.1701C140.9 64.1601 139.46 64.1501 138.01 64.1301C138.41 63.0001 138.72 61.8201 139.23 60.7401C139.77 59.5801 140.66 58.6601 142.09 59.0501C143.69 59.4901 143.21 60.9801 143.43 62.1001C143.07 62.7901 142.71 63.4801 142.35 64.1701Z" fill="#5B878E"/>
<path d="M13.7998 113.88C13.7998 113.88 13.8098 113.89 13.8098 113.9C13.8198 113.92 13.8098 113.95 13.8098 113.97V113.88H13.7998Z" fill="#5B878E"/>
<path d="M97.2197 46.3401H97.2397L97.1997 46.3701C97.1997 46.3701 97.2097 46.3501 97.2197 46.3401Z" fill="#5B878E"/>
<path d="M118.11 28.9702C117.92 29.2302 117.8 29.4902 117.72 29.7502C117.8 29.4902 117.92 29.2202 118.11 28.9702Z" fill="#5B878E"/>
<path d="M143.43 62.1002C143.07 62.7902 142.71 63.4802 142.35 64.1702C140.9 64.1602 139.46 64.1502 138.01 64.1302C138.41 63.0002 138.72 61.8202 139.23 60.7402C139.77 59.5802 140.66 58.6602 142.09 59.0502C143.69 59.4902 143.21 60.9802 143.43 62.1002Z" fill="#5B878E"/>
<path d="M16.0998 78.56C16.0698 79.27 16.0498 79.98 16.0198 80.69C11.0498 82.01 14.1998 85.59 13.9298 88.22C11.6698 87.69 10.2598 89.34 8.57982 90.3C5.27982 88.94 4.11982 86.89 6.91982 84.03C9.80982 81.08 9.94982 77.57 9.48982 73.84C9.44982 73.06 9.65982 72.4 10.3898 71.99C11.9298 72.04 13.4698 72.09 15.0098 72.13C15.3598 74.28 14.1298 76.69 16.0998 78.56Z" fill="#5B878E"/>
<path d="M9.48977 73.8401C9.94977 77.5701 9.80977 81.0801 6.91977 84.0301C4.11977 86.8901 5.27977 88.9401 8.58977 90.3001C7.15977 92.0701 6.48977 94.4601 4.32977 95.6501C0.979765 95.3901 1.95977 91.6601 0.00976562 90.2701C2.83977 84.6001 4.85977 78.4701 9.49977 73.8401H9.48977Z" fill="#5B878E"/>
<path d="M111.39 292.27C111.27 291.59 111.14 290.91 111.02 290.22C111.16 289.87 111.31 289.52 111.45 289.16C112.78 287.19 113.08 284.57 111.49 283.29C108.52 280.91 109.17 277.99 109.07 275.07C108.92 270.71 110 266.12 106.59 262.37C105.94 261.65 106.47 260.71 106.5 259.86C106.72 254.2 107.16 248.5 106.81 242.87C106.49 237.79 105.74 232.35 100.72 229.46C95.3899 226.4 89.2399 224.53 86.8999 217.91C86.8099 217.66 85.9199 217.7 85.4099 217.6H85.4699C85.1199 217.22 84.7699 216.84 84.4299 216.46C83.8499 212.69 82.8998 209.23 78.1698 208.91C74.8998 203.24 74.6698 197.56 78.0598 191.85C85.1898 189.74 88.5099 185.63 87.5099 180.15C86.5032 174.63 88.3398 170.673 93.0198 168.28C95.1698 168.88 97.4699 169.1 98.8999 171.25C99.7899 172.6 101.65 173.17 102.45 171.87C104.32 168.84 108.15 169.39 110.24 167.02C110.91 167.23 111.58 167.43 112.25 167.64C113.1 172.51 116.18 170.29 118.6 169.51C122.21 168.36 125.26 168.13 126.18 172.81C126.56 174.75 127.94 174.69 129.36 174.74C134.15 179.4 141.89 178.18 146.43 183.34C146.6 192.48 152.79 195.43 160.4 196.84C161.78 197.1 163.24 197.13 164.65 197.05C170.67 196.72 176.52 196.56 179.76 203.2C180.22 204.14 181.71 204.66 182.82 205.19C186.86 207.11 187.05 209.73 184.11 212.7C178.49 218.39 176.77 225.5 176.4 233.14C175.91 243.35 172.84 246.56 162.6 247.47C157.08 247.96 155.18 250.13 156.34 255.51C157.07 258.88 157.4 262.16 157.05 265.54C156.9 265.75 156.86 265.98 156.91 266.23C150.94 270.95 147.42 277.55 143.42 283.78C142.99 284.1 142.56 284.43 142.12 284.75C140.33 285.52 138.46 286.16 136.77 287.1C133.94 288.67 129.84 287.59 128.02 291.26C126.13 292.63 123.92 292.08 121.83 292.34C118.32 292.79 114.85 290.86 111.36 292.26L111.39 292.27ZM90.3398 213.72C89.5198 213.62 89.0099 213.97 88.9099 214.79C88.7799 215.88 88.8098 216.96 90.1698 217.23C90.8998 217.37 91.5399 217.04 91.7099 216.22C91.9599 215.01 91.3998 214.22 90.3398 213.72Z" fill="#5B878E"/>
<path d="M95.2397 164.11C95.2097 164.8 95.1897 165.5 95.1597 166.19C93.7997 166.23 93.0797 166.92 93.0197 168.29C88.3464 170.683 86.5131 174.637 87.5197 180.15C88.5097 185.63 85.1897 189.74 78.0597 191.86C78.2597 189.47 79.9997 188.07 81.6897 186.9C84.7097 184.83 85.2097 182.42 84.7997 178.8C84.2897 174.38 82.7997 172.35 78.2597 172.69C71.5697 173.2 67.6397 168.86 63.9597 164.19C62.8797 162.82 61.7897 161.45 60.7097 160.09L61.0297 159.71C64.7197 159.52 67.8597 159.93 67.5597 164.89C67.4997 165.97 68.4197 166.89 69.5897 166.97C70.1697 167.02 71.0297 166.67 71.3397 166.21C72.7897 164.1 69.0797 156.15 66.3897 155.44C62.3397 152.71 63.0297 146.09 57.4897 144.58C58.0097 144.1 58.4597 143.5 59.0597 143.18C61.0497 142.08 62.3997 138.58 65.1897 140.44C67.8097 142.19 65.4797 144.55 64.7797 146.59C64.0197 148.83 64.6797 151 66.9297 151.06C72.8497 151.23 73.0397 155.62 73.5297 159.52C74.0297 163.46 73.8797 167.22 78.9197 168.64C84.0097 170.07 88.2597 169.81 91.7097 165.3C92.5197 164.23 93.9597 163.65 95.1197 162.84C95.1597 163.27 95.1997 163.69 95.2397 164.11Z" fill="#5B878E"/>
<path d="M77.9296 119.47C72.8196 119.41 67.6796 119.07 62.5796 119.35C50.6496 120.01 44.8296 127.97 40.8396 137.49C39.9396 139.63 41.5796 141.56 41.7896 143.63C37.2296 143.14 38.3196 139.69 38.8196 137.17C40.9496 126.58 51.6596 118.17 62.4996 118.04C67.0796 117.98 71.6996 118.67 76.2496 117.51C77.7596 117.13 77.9396 118.32 77.9296 119.47Z" fill="#5B878E"/>
<path d="M112.26 167.64C111.59 167.43 110.92 167.23 110.25 167.02C109.86 166.38 109.47 165.74 109.07 165.11C112.57 165.1 115.83 164.87 119.27 163.29C122.89 161.62 126.86 163.24 129.25 166.72C130.15 168.03 131.27 169.11 132.13 170.36C134.41 173.65 137.15 175.45 141.28 174.84C142.51 174.66 143.11 175.67 143.29 176.83C138.23 177.53 133.75 175.91 129.49 173.42C127.42 165.67 125.52 164.67 117.92 166.95C116.12 167.49 114.15 167.42 112.25 167.64H112.26Z" fill="#5B878E"/>
<path d="M109.07 165.11C109.46 165.75 109.85 166.39 110.25 167.02C108.16 169.39 104.33 168.84 102.46 171.87C101.66 173.17 99.7998 172.6 98.9098 171.25C97.4798 169.1 95.1798 168.88 93.0298 168.28C93.0898 166.91 93.8098 166.22 95.1698 166.18C97.3898 166.09 98.6098 168.59 100.95 168.35C102.83 168.16 104.75 167.9 104.53 165.56C104.36 163.71 102.63 163.24 100.93 163.39C99.0298 163.56 97.1398 163.86 95.2398 164.1C95.1998 163.68 95.1598 163.26 95.1198 162.84C95.1198 162.55 95.1498 162.27 95.2098 161.99C99.3198 159.89 103.11 161.37 106.89 163.04L106.88 163.01C107.25 163.37 107.62 163.73 107.98 164.09L107.96 164.07C108.33 164.42 108.71 164.77 109.08 165.12L109.07 165.11Z" fill="#5B878E"/>
<path d="M91.1396 116.2C89.1696 118.68 85.3996 120.27 87.2596 124.56C87.2596 124.66 86.1996 125.2 85.6496 125.54C83.4896 119.05 86.5396 114.19 95.0796 110.5V110.52C95.8296 113.81 92.5696 114.39 91.1396 116.2Z" fill="#5B878E"/>
<path d="M143.44 283.78C147.44 277.55 150.96 270.94 156.93 266.23C156.88 266.91 157.09 267.76 156.76 268.26C153.84 272.7 150.94 277.16 147.79 281.44C146.84 282.73 145.52 284.19 143.44 283.79V283.78Z" fill="#5B878E"/>
<path d="M128.04 291.26C129.86 287.6 133.96 288.68 136.79 287.1C138.49 286.16 140.35 285.52 142.14 284.75C142.53 287.88 140.41 288.51 138.02 289.13C135.95 289.66 133.25 289.32 132.56 292.3C130.92 292.56 130.34 293.09 131.65 294.64C132.75 295.95 131.7 296.4 130.52 296.6C129.69 294.82 128.87 293.04 128.04 291.26Z" fill="#5B878E"/>
<path d="M129.49 173.42C133.76 175.91 138.24 177.53 143.29 176.83C143.92 177.23 144.55 177.63 145.19 178.03C145.61 178.72 146.02 179.41 146.44 180.11L146.43 180.12C146.43 181.19 146.43 182.26 146.43 183.33C141.89 178.18 134.14 179.39 129.36 174.73C129.4 174.29 129.45 173.85 129.49 173.41V173.42Z" fill="#5B878E"/>
<path d="M106.88 163.04C103.11 161.37 99.32 159.88 95.2 161.99C95.11 159.26 94.92 156.58 98.92 159.34C101.33 161 106.13 157.65 106.88 163.04Z" fill="#5B878E"/>
<path d="M84.4098 127.74C81.9698 130.81 80.8797 130.55 79.2397 126.52C80.9597 126.93 82.6898 127.33 84.4098 127.74Z" fill="#5B878E"/>
<path d="M48.2296 147.75C45.7096 149.88 44.0696 149.76 43.8296 146.04C45.5096 146.04 46.9196 146.77 48.2296 147.75Z" fill="#5B878E"/>
<path d="M121.78 83.6602C121.88 86.6702 119.98 87.2102 117.55 87.0702C118.54 85.4102 119.88 84.1902 121.78 83.6602Z" fill="#5B878E"/>
<path d="M53.5 147.97C53.7 146.09 55.12 145.5 56.64 145C56.93 147.41 55.73 148.24 53.5 147.97Z" fill="#5B878E"/>
<path d="M79.2498 126.6C77.2098 125.15 78.2798 123.04 78.0898 121.19C79.4998 122.75 78.9298 124.73 79.2398 126.52C79.2398 126.55 79.2398 126.57 79.2498 126.6Z" fill="#5B878E"/>
<path d="M109.07 165.12C108.7 164.77 108.32 164.42 107.95 164.07C108.32 164.42 108.7 164.77 109.07 165.12Z" fill="#5B878E"/>
<path d="M107.98 164.09C107.61 163.73 107.24 163.37 106.88 163.01C107.25 163.37 107.62 163.73 107.98 164.09Z" fill="#5B878E"/>
<path d="M51.2896 147.98C50.8996 147.95 50.5096 147.93 50.1196 147.9C50.5496 147.41 50.9396 147.42 51.2896 147.98Z" fill="#5B878E"/>
<path d="M85.4097 217.6C85.9297 217.7 86.8097 217.66 86.8997 217.91C89.2297 224.52 95.3897 226.4 100.72 229.46C105.74 232.35 106.49 237.79 106.81 242.87C107.16 248.51 106.72 254.2 106.5 259.86C106.47 260.72 105.93 261.65 106.59 262.37C110 266.12 108.92 270.71 109.07 275.07C109.17 278 108.52 280.91 111.49 283.29C113.08 284.56 112.78 287.19 111.45 289.16C111.13 287.05 109.79 285.71 108.04 284.68C107.97 284.37 107.89 284.06 107.8 283.75C107.53 283.37 107.26 282.99 106.99 282.6C106.99 282.6 107.04 282.6 107.03 282.6C106.28 279.1 106.23 275.6 107.46 272.2C108.3 269.87 107.5 268.08 105.95 266.43C103.78 260.2 104.8 253.75 104.94 247.43C105.14 238.47 102.52 231.74 93.3697 228.82C87.8897 227.07 87.4997 221.73 85.4197 217.58L85.4097 217.6Z" fill="#5B878E"/>
<path d="M5.26992 125.58C5.06992 124.83 4.86992 124.07 4.66992 123.32L5.01992 123.33H5.35992C7.17992 123.33 8.93992 128.6 10.8299 123.39C12.8699 126.31 14.8999 129.23 16.9399 132.15C17.0699 132.82 17.1999 133.49 17.3299 134.16C17.2299 134.84 17.1299 135.52 17.0299 136.21L17.0499 136.16C13.8799 138.08 11.8299 135.87 9.63992 134.15L9.62992 134.14C9.03992 130.85 6.47992 128.56 5.25992 125.59L5.26992 125.58Z" fill="#5B878E"/>
<path d="M61.0299 159.71C61.0299 159.71 60.7099 160.08 60.7099 160.09C56.1199 158.49 50.3999 159.47 47.5299 153.87C46.8099 152.47 44.5899 153.46 43.0399 153.48C37.2499 153.54 31.5499 153.21 26.9399 149.01C28.6799 149.22 30.4699 149.27 32.1699 149.67C37.7799 151.01 43.3499 152.49 49.1899 151.25C51.8499 154.68 54.1199 158.63 59.5399 157.82C60.4899 157.68 60.8399 158.83 61.0299 159.71Z" fill="#5B878E"/>
<path d="M105.95 266.45C107.49 268.1 108.3 269.89 107.46 272.22C106.23 275.62 106.29 279.12 107.03 282.62C102.71 280.92 104.91 277.24 105.09 274.64C105.28 271.94 105.85 269.21 105.95 266.45Z" fill="#5B878E"/>
<path d="M26.8596 148.91C23.1496 145.27 23.1096 140.94 24.4696 136.34C24.4796 136.35 24.4896 136.37 24.4996 136.38C27.7596 140.08 26.0496 144.73 26.8596 148.91Z" fill="#5B878E"/>
<path d="M78.1699 208.92C82.8999 209.24 83.8499 212.7 84.4299 216.47C81.7199 214.47 79.3599 212.18 78.1699 208.92Z" fill="#5B878E"/>
<path d="M9.65967 134.15C11.8497 135.87 13.8997 138.08 17.0697 136.16C16.4497 139.86 13.5497 138.31 11.6397 138.24C9.06967 138.14 9.81967 135.79 9.65967 134.16V134.15Z" fill="#5B878E"/>
<path d="M108.04 284.68C109.79 285.71 111.12 287.05 111.45 289.16C111.31 289.51 111.16 289.87 111.02 290.22C110.37 290.2 109.71 290.19 109.06 290.17C108.72 288.34 108.38 286.51 108.05 284.68H108.04Z" fill="#5B878E"/>
<path d="M24.4996 136.38C24.4996 136.38 24.4796 136.35 24.4696 136.34C23.4896 135.23 22.5096 134.12 21.5296 133.01C21.3896 132.34 21.2596 131.68 21.1196 131.02C25.0496 131.02 24.6696 133.77 24.4996 136.38Z" fill="#5B878E"/>
<path d="M17.0396 136.2C17.1396 135.52 17.2396 134.83 17.3396 134.15C18.2996 134.99 18.2096 135.67 17.0396 136.2Z" fill="#5B878E"/>
<path d="M84.4297 216.46C84.7797 216.84 85.1297 217.22 85.4697 217.6C85.1197 217.22 84.7697 216.84 84.4297 216.46Z" fill="#5B878E"/>
<path d="M106.99 282.61C107.26 282.99 107.53 283.37 107.8 283.76C107.53 283.38 107.26 283 106.99 282.61Z" fill="#5B878E"/>
<path d="M128.04 291.26C128.86 293.04 129.69 294.82 130.52 296.6C130.52 296.6 130.45 296.65 130.45 296.64C130.15 296.97 129.85 297.3 129.54 297.63C127.37 300.77 127.43 303.09 131.61 304.45C133.85 305.18 135.36 307.03 134 309.42C131.46 313.91 133.62 316.76 136.92 319.4C138.18 320.41 139.62 321.4 138.78 323.31C138.03 325.01 136.35 324.27 135.02 324.48C129.26 325.4 124.91 322.62 121.54 318.6C118.04 314.42 114.39 310.24 112.18 305.12C110.92 301.64 111.33 297.98 111.01 294.4C111.14 293.69 111.27 292.98 111.4 292.27C114.89 290.86 118.36 292.8 121.87 292.35C123.96 292.08 126.16 292.64 128.06 291.27L128.04 291.26Z" fill="#5B878E"/>
<path d="M129.54 297.63C129.84 297.3 130.14 296.97 130.45 296.64C130.15 296.97 129.85 297.3 129.54 297.63Z" fill="#5B878E"/>
<path d="M71.3399 166.21C71.0299 166.67 70.1699 167.02 69.5899 166.97C68.4199 166.89 67.4999 165.97 67.5599 164.89C67.8599 159.93 64.7199 159.52 61.0299 159.71C60.8399 158.83 60.4899 157.68 59.5399 157.82C54.1199 158.63 51.8499 154.68 49.1899 151.25C53.5799 147.82 56.2799 152.94 59.9099 153.36C60.2599 153.36 60.6099 153.35 60.9599 153.33C61.6899 156.8 64.4499 155.08 66.3899 155.44C69.0799 156.15 72.7899 164.1 71.3399 166.21Z" fill="#5B878E"/>
<path d="M11.7296 98.8302C10.3296 99.9302 8.93959 101.03 7.53959 102.13C6.13959 102.06 4.72959 102 3.32959 101.94C3.65959 99.8502 3.98959 97.7502 4.31959 95.6502C6.48959 94.4602 7.14959 92.0802 8.57959 90.3002C10.2596 89.3402 11.6696 87.6902 13.9296 88.2202C14.4696 92.0202 11.7696 95.1502 11.7296 98.8302Z" fill="#5B878E"/>
<path d="M21.15 86.9702C16.71 89.7102 15.98 94.7802 13.24 98.5302C13.01 98.8302 12.24 98.7402 11.73 98.8302C11.77 95.1502 14.47 92.0202 13.93 88.2202C14.2 85.5902 11.05 82.0102 16.02 80.6902C15.69 84.9602 18.37 83.0802 20.28 82.7802C21.86 83.9502 21.97 86.4602 21.15 86.9702Z" fill="#5B878E"/>
<path d="M11.7997 111.67L9.69973 111.7C8.19973 111.74 6.70973 111.78 5.20973 111.82L5.28973 111.8C4.93973 111.42 4.57973 111.04 4.22973 110.67L4.18973 110.75C3.86973 109.29 3.53973 107.83 3.21973 106.38L3.25973 106.33C5.55973 106.44 5.63973 103.59 7.52973 103.15C7.52973 104.21 7.53973 105.28 7.53973 106.34C7.77973 107.16 6.95973 108.63 8.38973 108.65C9.53973 108.68 9.54973 107.31 9.65973 106.34C13.0997 107.02 11.3497 109.79 11.7997 111.67Z" fill="#5B878E"/>
<path d="M20.3099 130.02C16.1499 125.47 13.7399 120.22 13.7999 113.97V113.88C13.7999 113.88 13.8099 113.89 13.8099 113.9C16.5399 119.04 19.2399 124.2 20.3099 130.02Z" fill="#5B878E"/>
<path d="M13.8097 113.9C13.8097 113.9 13.8097 113.95 13.8097 113.97H13.7997C11.7097 113.33 10.6997 114.68 9.74971 116.16C9.72971 114.67 9.70971 113.19 9.69971 111.7L11.7997 111.67C13.2297 111.75 13.9597 112.45 13.8097 113.9Z" fill="#5B878E"/>
<path d="M22.3999 80.6301C23.2199 79.3001 23.6599 77.5901 25.5999 77.3501C27.8199 81.6501 24.4199 80.4601 22.3999 80.6301Z" fill="#5B878E"/>
<path d="M60.9597 153.33C60.6097 153.35 60.2597 153.36 59.9097 153.36C59.7097 152.58 59.4797 151.8 59.3297 151C59.3197 150.95 59.9197 150.62 60.1097 150.71C61.2997 151.26 60.8097 152.4 60.9597 153.33Z" fill="#5B878E"/>
<path d="M9.65988 106.34C9.54988 107.31 9.53988 108.68 8.38988 108.65C6.95988 108.63 7.77988 107.16 7.53988 106.34H9.65988Z" fill="#5B878E"/>
<path d="M143.43 62.1002C143.07 62.7902 142.71 63.4802 142.35 64.1702C140.9 64.1602 139.46 64.1502 138.01 64.1302C138.41 63.0002 138.72 61.8202 139.23 60.7402C139.77 59.5802 140.66 58.6602 142.09 59.0502C143.69 59.4902 143.21 60.9802 143.43 62.1002Z" fill="#5B878E"/>
<path d="M19.3499 72.1701C18.4599 74.4001 18.6499 77.1701 16.0999 78.5601C14.1299 76.6901 15.3599 74.2801 15.0099 72.1301C16.4599 72.1501 17.8999 72.1601 19.3499 72.1701Z" fill="#5B878E"/>
<path d="M129.49 173.42C129.45 173.86 129.4 174.3 129.36 174.74C127.95 174.69 126.57 174.76 126.18 172.81C125.26 168.13 122.2 168.36 118.6 169.51C116.19 170.28 113.1 172.5 112.25 167.64C114.14 167.43 116.12 167.49 117.92 166.95C125.52 164.67 127.42 165.67 129.49 173.42Z" fill="#5B878E"/>
<path d="M90.3397 213.71C91.3897 214.22 91.9597 215.01 91.6997 216.22C91.5297 217.04 90.8797 217.38 90.1597 217.23C88.7997 216.96 88.7697 215.88 88.8997 214.79C88.9997 213.97 89.5097 213.62 90.3397 213.71Z" fill="#5B878E"/>
<path d="M95.2297 164.11C97.1297 163.87 99.0197 163.57 100.92 163.4C102.62 163.25 104.35 163.72 104.52 165.57C104.74 167.91 102.82 168.16 100.94 168.36C98.5997 168.6 97.3797 166.1 95.1597 166.19C95.1797 165.5 95.2097 164.8 95.2297 164.11Z" fill="#5B878E"/>
<path d="M5.36975 123.32C5.32975 122.69 5.27975 122.05 5.23975 121.42C5.65975 121.38 6.07975 121.34 6.49975 121.31C7.49975 121.31 8.50975 121.31 9.50975 121.31C9.94975 122.01 10.3897 122.7 10.8297 123.4C8.93975 128.62 7.17975 123.35 5.35975 123.33L5.36975 123.32Z" fill="#5B878E"/>
<path d="M9.50969 121.3C8.50969 121.3 7.49969 121.3 6.49969 121.3C5.91969 118.44 7.70969 115.23 5.19969 112.66C5.08969 112.38 5.08969 112.09 5.19969 111.81C6.68969 111.77 8.18969 111.73 9.68969 111.68C9.70969 113.17 9.71969 114.66 9.73969 116.14C9.65969 117.85 9.57969 119.57 9.50969 121.28V121.3Z" fill="#5B878E"/>
</g>
</g>
<defs>
<clipPath id="clip0_236_50">
<rect width="521.09" height="324.66" fill="#fffdfa"/>
</clipPath>
</defs>
</svg>
