<svg width="83" height="82" viewBox="0 0 83 82" fill="none" xmlns="http://www.w3.org/2000/svg">
<path d="M52.7034 68.5862C49.9143 69.591 46.9692 70.1973 43.9721 70.3359C33.9936 70.8036 24.8812 66.1955 18.454 58.7288C16.7216 56.7193 15.0412 54.4498 11.8882 54.5018C9.77468 54.5365 7.78243 55.7838 6.88158 57.7067C5.25313 61.1888 7.40131 64.8095 9.77469 67.5294C22.196 81.8043 43.695 85.9101 60.4472 77.1095C79.4169 67.131 87.9576 42.9294 78.8452 23.4227C74.4623 14.0677 66.3893 6.37589 56.8092 2.47801C51.6986 0.399133 45.3234 -0.501712 37.6143 0.277866C34.5999 0.572373 27.9821 2.13153 25.3836 4.00251C22.3519 6.18533 23.7898 8.36815 27.2892 7.39801C34.4786 5.38843 38.3938 4.88603 45.8431 6.25463C61.6599 9.16505 72.9031 19.0397 74.0119 35.7227C74.1505 37.9228 74.1678 40.1403 73.9426 42.3404C72.6952 54.3286 63.86 64.6017 52.7207 68.6035" fill="url(#paint0_linear_55_132)"/>
<path d="M8.07647 48.0054C10.883 46.914 12.3555 44.1075 11.7318 41.2664C10.9869 37.8363 7.24493 35.7054 3.95338 36.8661C0.74845 37.9922 -0.828033 41.5436 0.436614 44.6619C1.57999 47.4684 5.26999 49.0795 8.07647 47.9881" fill="url(#paint1_linear_55_132)"/>
<path d="M8.25066 29.1915C10.1043 28.4292 11.0052 26.2291 10.2429 24.3061C9.5153 22.4698 7.21122 21.569 5.35756 22.4005C3.55587 23.1974 2.65503 25.3629 3.39996 27.0953C4.21418 29.0009 6.397 29.9364 8.25066 29.1915Z" fill="url(#paint2_linear_55_132)"/>
<path d="M15.8544 16.1986C17.1711 15.7135 17.8294 14.241 17.3443 12.9244C16.8419 11.6077 15.3867 10.9321 14.0701 11.4345C12.7535 11.9196 12.0951 13.3921 12.5802 14.7087C13.0826 16.0254 14.5378 16.701 15.8544 16.1986Z" fill="url(#paint3_linear_55_132)"/>
<defs>
<linearGradient id="paint0_linear_55_132" x1="6.30989" y1="40.8679" x2="82.4833" y2="40.8679" gradientUnits="userSpaceOnUse">
<stop offset="0.0625" stop-color="#E3F8F7"/>
<stop offset="0.421875" stop-color="#A9DFDF"/>
<stop offset="0.822917" stop-color="#85C0C6"/>
</linearGradient>
<linearGradient id="paint1_linear_55_132" x1="-0.0138075" y1="42.4444" x2="11.8704" y2="42.4444" gradientUnits="userSpaceOnUse">
<stop stop-color="white"/>
<stop offset="0.18" stop-color="#EEFFFF"/>
<stop offset="1" stop-color="#76AAC1"/>
</linearGradient>
<linearGradient id="paint2_linear_55_132" x1="3.1401" y1="25.7614" x2="10.5028" y2="25.7614" gradientUnits="userSpaceOnUse">
<stop stop-color="#F1FFFE"/>
<stop offset="0.18" stop-color="#D5F3F3"/>
<stop offset="1" stop-color="#C3DDE9"/>
</linearGradient>
<linearGradient id="paint3_linear_55_132" x1="12.4243" y1="13.8079" x2="17.5175" y2="13.8079" gradientUnits="userSpaceOnUse">
<stop stop-color="#FDFFFF"/>
<stop offset="0.18" stop-color="#C6EFEF"/>
<stop offset="1" stop-color="#E3F3FB"/>
</linearGradient>
</defs>
</svg>
