<?xml version="1.0" encoding="UTF-8"?><svg xmlns="http://www.w3.org/2000/svg" viewBox="0 0 521.09 324.66"><defs><style>.d{fill:#fdfeff;}.e{opacity:.3;}</style></defs><g id="a"/><g id="b"><g id="c"><g class="e"><path class="d" d="M359.08,.68c-.36-.23-.72-.45-1.07-.68,.36,.23,.72,.45,1.07,.68Z"/><path class="d" d="M167.44,184.11c-.42-.69-.83-1.38-1.25-2.08,2.5-.56,.81,1.4,1.25,2.08Z"/><g><path class="d" d="M464.46,45.34c-.31,.04-.62,.08-.93,.13-.37-.67-.7-.94-.92,.08-1.2,1.3-2.3,.37-3.42-.15,2.54-3.94-2.21-4.08-3.22-6.17,.41-.31,.82-.61,1.22-.91,6.35-1.71,6.88,2.59,7.26,7.03Z"/><path class="d" d="M457.2,38.3c-.41,.3-.82,.61-1.22,.91-.35-.4-.7-.8-1.05-1.2,.01-1.83-1.24-2.69-2.62-3.48-1.94-1.11-3.06-2.71-2.83-5.05,.94-.42,1.08-1.28,1.17-2.16,1.06-.38,2.11-.75,3.17-1.13-.73,2.53-1.39,4.93,1.28,6.97,1.56,1.19,2.15,3.12,2.12,5.14Z"/><path class="d" d="M449.46,29.48c-.22,2.34,.89,3.93,2.83,5.05,1.38,.79,2.64,1.65,2.62,3.48-2.46-.21-4.19-1.89-5.84-3.35-1.75-1.55-3.26-3.73,.38-5.19Z"/><path class="d" d="M434.63,34.67c-2.78-.05-5.5,.04-6.72,3.24-2.22-3.36,.51-4.2,2.69-5.36,2.42-1.29,3.63-.37,4.03,2.12Z"/><path class="d" d="M439.95,45.51c-3.23-2.4-3.75-6.01-4.32-9.61,4.32,1.91,3.83,5.98,4.32,9.61Z"/><path class="d" d="M457.06,45.31c-2.14,.4-4.27,.79-6.41,1.19,1.65-3.03,3.5-4.96,6.41-1.19Z"/><path class="d" d="M449.92,46.73c-.43,.4-.87,.81-1.3,1.21,.13-.73,.57-1.13,1.3-1.21Z"/><path class="d" d="M453.77,26.23c.51-.85,1.31-1.08,2.23-1.06-.48,.91-1.31,1.08-2.23,1.06Z"/><path class="d" d="M462.61,45.54c.22-1.02,.55-.75,.92-.08-.3,.04-.61,.07-.92,.08Z"/><path class="d" d="M470.44,231.63c-.58-1.87-.56-3.74,0-5.61,1.74-1.66,.39-3.42-.05-4.98-.73-2.6-2.91-4.72-2.66-7.69,1.88,.02,3.29-.4,4.28-2.39,2.02-4.08,4.43-7.97,6.64-11.96,7.16-13,11.58-26.98,12.44-41.71,.96-16.64,.79-33.37-3.31-49.71-.92-3.65-.71-7.84-3.76-10.8-.1-.28-.15-.56-.16-.85,2.39-.22,4.85-2.26,7.14-.27,6.67,5.77,14.65,5.63,22.7,5.4,1.56,2.25,2.1,4.8,2.16,7.49-.78,.58-1.11,1.33-.89,2.3,3.55,15.73,4.59,31.67,4.09,47.74-.05,1.53-.45,3.23,.99,4.47-.99,18.78-5.87,36.64-13.07,53.87-5.68,13.6-13.1,26.26-22.18,37.92-.76,.97-1.3,2.13-2.63,2.48-3.21,.03-4.76-1.6-4.98-4.77-.19-2.77-.56-5.53-.86-8.3,.73-5.47-4.02-8.39-5.88-12.65Z"/><path class="d" d="M462.74,20.83c1.21-.13,1.98,.62,2.74,1.37,17.71,17.48,32.46,37.04,42.04,60.19,.46,1.12,.6,2.38,.89,3.58-9,.42-9.98-.2-12.28-6.75-.58-1.64-.15-4.57-2.89-4.4-2.27,.14-3.39,2.31-4.12,4.39-.23,.67-.39,1.37-.66,2.02-1.25,2.99-2.95,3.3-5.05,.77-1.36-1.64-3.06-3.38-2.76-5.55,.47-3.36-1.58-5.24-3.38-7.38-.46-2.5-3.67-2.7-4.27-5.09-.32-.97-.59-1.96-.97-2.9-2.18-5.41-6.97-9.57-7.58-15.74-.38-4.45-.91-8.75-7.26-7.03,.03-2.02-.56-3.95-2.12-5.14-2.67-2.04-2.01-4.44-1.28-6.97l-.03,.04c.92,.02,1.75-.15,2.23-1.06,2.25-1.45,4.49-2.9,6.74-4.34Z"/><path class="d" d="M520.05,163.07c-1.44-1.24-1.04-2.93-.99-4.47,.5-16.08-.54-32.02-4.09-47.74-.22-.97,.11-1.72,.89-2.3,4.65,15.94,5.93,32.23,4.9,48.74-.12,1.93-.47,3.85-.71,5.77Z"/><path class="d" d="M484.01,96.78c3.05,2.96,2.84,7.15,3.76,10.8,4.1,16.34,4.27,33.07,3.31,49.71-.85,14.72-5.27,28.71-12.44,41.71-2.2,3.99-4.61,7.88-6.64,11.96-.99,1.99-2.39,2.42-4.28,2.39-.64-4.11,2.92-6.81,3.39-10.8,1.13-9.58-5.99-15.74-8.71-23.66-.34-.98-1.84-.83-2.91-.82-.06-2.15-.12-4.29-.18-6.44,4.02,.03,3.9-3.24,3.93-5.65,.03-2.67-2.08-4.01-4.74-3.94-2.4,.06-4.89-.4-6.62-1.69-5.13-3.83-11.13-3.41-16.36-2.25-4.3,.95-8.67-.39-12.88,1.63-4.74,2.28-9.29-.49-13.8-1.94-.35-.38-.7-.76-1.05-1.14-.05-2.05,.55-4.03-1.63-5.75-7.18-5.65-9.01-12.67-4.87-21.11,1.14-2.33,2.13-4.83-.65-7.2-2.8-2.38-2.58-4.72,1.04-6.39,1.26-.58,2.32-1.55,3.51-2.3,6.23-3.93,12.52-7.43,12.62-16.5,.04-3.65,3.84-5.27,7.82-4.24,3.63,.93,6.78,.8,7.93-3.66,2.26-.47,4.55-.84,6.77-1.44,6.17-1.64,12.32-3.35,18.82-2.19l.21,.26c-.06,6.69,2.96,10.37,9.9,11.07,2.89,.29,5.68,1.81,8.44,2.97,2.45,1.03,3.71,.37,4.02-2.23v.03l2.29-1.2Z"/><path class="d" d="M464.46,45.34c.61,6.17,5.4,10.33,7.58,15.74,.38,.94,.65,1.93,.97,2.9-2.56,.19-6.07-2.12-7.32,1.65-1.12,3.38,1.59,5.45,4.26,7.1,.74,.45,1.39,1.04,2.08,1.57-.1,1.28-.2,2.57-.3,3.85-.34-.08-.61-.26-.81-.55l-1.29-.97c-1.61-.8-3.21-1.6-4.82-2.41-1.7-1.58-3.15-3.49-5.47-4.29h0c-.24-1.87-1.61-2.44-3.02-1.83-4.41,1.92-9.26,3.15-12.5,7.14-1.15,.21-1.69,.96-1.85,2.06-1.45,1.23-2.99,2.4-3.07,4.55-.44,.69-.88,1.39-1.32,2.08-3.43,1.57-6.93,2.63-10.8,2.24-5.43-.55-8.18-3.48-8.35-9.13-.16-5.46,2.08-7.81,7.87-8.66,2.42-.35,4.53,.71,6.81,.93,3.63,.35,4.93-1.32,3.44-4.66-.49-1.1-1.35-2.04-2.05-3.05-.06-.76-.11-1.52-.17-2.28,1.15-1.65,2.44-3.09,4.65-3.17,4.78-.17,7.36-2.98,8.7-7.27,.31-.31,.61-.61,.91-.92,.43-.41,.87-.81,1.3-1.21,.27,0,.51-.07,.73-.23,2.14-.4,4.27-.79,6.41-1.19,.71,.03,1.42,.05,2.13,.08,1.12,.52,2.22,1.45,3.42,.15,.31,0,.61-.03,.92-.08,.31-.05,.62-.09,.93-.12Z"/><path class="d" d="M433.57,89.51c-1.15,4.46-4.3,4.59-7.93,3.66-3.98-1.03-7.78,.59-7.82,4.24-.1,9.07-6.39,12.58-12.62,16.5-1.18,.75-2.25,1.72-3.51,2.3-3.61,1.66-3.84,4-1.04,6.39,2.78,2.36,1.8,4.86,.65,7.2-4.14,8.44-2.31,15.46,4.87,21.11,2.19,1.72,1.58,3.7,1.63,5.75-5.92-6.11-12.61-11.81-10.6-21.81,.31-1.56,.22-3.14,1.33-4.49,2.41-2.93,2.56-5.46-.85-8.08-2.48-1.91-1.91-4.29,.63-6.18,3.85-2.86,7.46-6.07,11.49-8.62,3.53-2.24,5.14-5.24,5.51-9.16,.57-6.05,3.01-8.43,9.07-8.73,2.66-.13,5.33-.21,8-.31,.39,.08,.79,.17,1.18,.25Z"/><path class="d" d="M447.7,48.87c-1.33,4.3-3.91,7.1-8.7,7.27-2.21,.08-3.51,1.52-4.65,3.17-1.07-1.16-1.09-3.23-3.49-3.24-1.78,0-2.7-1.22-2.08-3.24,1.12-3.71-1.67-2.85-3.6-2.96,1.15-1.08,2.42-2.06,3.42-3.26,.99-1.19,1.23-2.87-.14-3.77-1.91-1.25-4.11-1.01-5.96,.37-1.72,1.28-3.57,2.84-2.73,5.27,.93,2.67,3.16,2.24,5.29,1.5-1.59,3.07-4.87,3.95-6.99,2.34-2.66-2.02-.77-5.5,.37-8.04,1.91-4.25,6.25-3.67,9.93-4.24,4.33,2.22,8.57,4.32,2.85,9.69-1.79,1.69-.41,3.4,1.62,3.86,2.41,.55,5.06,.87,7.28-.36,3.03-1.68,4.36-3.8,0-5.69l-.05-.03-.12-2c3.02,.12,4.36,4.11,7.76,3.36Z"/><path class="d" d="M408.86,157.79c4.5,1.45,9.06,4.22,13.8,1.94,4.21-2.02,8.58-.68,12.88-1.63,5.23-1.16,11.23-1.58,16.36,2.25,1.73,1.29,4.22,1.75,6.62,1.69,2.66-.07,4.77,1.27,4.74,3.94-.03,2.41,.09,5.69-3.93,5.65,.88-5.26-2.15-6.33-6.42-8.84-9.85-5.78-18.77-.56-28.05-.29-1.41,.04-2.84,.14-4.23,.4-5.1,.96-9.01-.72-11.77-5.11Z"/><path class="d" d="M440.12,47.54c4.36,1.89,3.04,4.01,0,5.69-2.22,1.23-4.87,.91-7.28,.36-2.02-.46-3.41-2.18-1.62-3.86,5.72-5.37,1.48-7.47-2.85-9.69-.15-.71-.31-1.42-.46-2.12,1.22-3.2,3.94-3.29,6.72-3.24,.33,.41,.66,.82,1,1.24,.57,3.6,1.09,7.21,4.32,9.61h0c.04,.66,.08,1.33,.12,1.99-1.33,.8-3.44-2.24-4.26,.81-.29,1.06,.1,2.11,1.39,2.37,2.64,.53,2.71-1.39,2.92-3.15Z"/><path class="d" d="M459.51,178.07c1.07,0,2.57-.15,2.91,.82,2.72,7.92,9.85,14.08,8.71,23.66-.47,3.99-4.03,6.69-3.39,10.8-.24,2.97,1.93,5.09,2.66,7.69,.44,1.55,1.78,3.32,.05,4.98-.82-2.5-1.24-5.25-4.09-6.48-1.8-.77-1.71-2.53-2.08-4.05,.22-2.51,.95-4.79,2.4-6.95,4.04-6.06,3.2-12.03-.7-17.84-2.65-3.95-5.81-7.66-6.47-12.63Z"/><path class="d" d="M470.44,231.63c1.86,4.26,6.61,7.18,5.88,12.65-2.92-3.77-7.15-6.93-5.88-12.65Z"/><path class="d" d="M484.01,96.78c-.76,.4-1.52,.8-2.29,1.2-.19-1.63-.15-3.12,2-3.36,.04,.43,.08,.87,.13,1.3,0,.29,.06,.58,.16,.86Z"/><path class="d" d="M476.12,76.78c-.37,1.88-.64,3.78-1.13,5.63-.63,2.39-5.12,3.68-6.87,2.01-1.5-1.42-.32-2.11,.88-2.65,1.6-.72,3.5-1.16,2.73-3.62,.1-1.28,.2-2.56,.3-3.84,1.82,.07,2.87,1.42,4.1,2.48Z"/><path class="d" d="M459.34,69.94c-3.71-.18-6.51,2.08-9.59,3.6-1.87,.92-3.75,1.85-5.93,1.7,3.24-3.99,8.09-5.22,12.5-7.14,1.41-.61,2.79-.04,3.02,1.84Z"/><path class="d" d="M464.81,74.22c-3.21,.34-6.44,.7-5.47-4.28,2.32,.79,3.77,2.7,5.47,4.28Z"/><path class="d" d="M441.97,77.3c.22,2.36,.59,4.82-3.07,4.55,.09-2.15,1.63-3.32,3.07-4.55Z"/><path class="d" d="M470.91,77.6c-.43-.33-.86-.65-1.28-.97,.43,.33,.86,.65,1.28,.97Z"/><path class="d" d="M440.12,47.54c-.21,1.76-.29,3.68-2.92,3.15-1.29-.26-1.67-1.31-1.39-2.37,.82-3.05,2.93,0,4.26-.81l.05,.03Z"/></g><g><path class="d" d="M53.45,26.99c-.36,4.08-3.1,4.74-6.47,4.48,1.74-2.1,3.49-4.17,6.47-4.48Z"/><path class="d" d="M46.01,31.92c-.14,1.16-.84,1.68-1.96,1.74,.04-1.27,.59-1.96,1.96-1.74Z"/><path class="d" d="M120.81,37.91c.55-2.35,2.13-4.8-1.87-6.02-1.57-.48-1.84-2.39-.06-3.66,4.08,3.05,6.08,2.46,7.33-2.33,.61-2.36,1.41-4.37,4.04-5.06,5.31-1.4,10.58-3.06,16.13-1.22,2.54,1.16,5.06,2.36,7.62,3.46,2.85,1.23,5.36,2.67,5.46,6.3,.02,.64,.29,1.42,.71,1.89,1.27,1.42,4.11,1.91,2.62,4.85-1.25,2.47-3.67,1.47-5.6,1.95-.68,.09-1.75-.06-1.98,.31-4.4,6.98-9.93,3.39-15.33,1.84-1.77-.51-1.08-1.32-.75-2.26,.13-.15,.21-.33,.23-.53,.99-.38,2.12-.57,2.94-1.18,1.79-1.33,5.59-1.16,4.6-4.7-.88-3.18-4.15-3.08-6.69-3.01-7.54,.2-12.94,4.83-18.31,9.39l-1.1-.02Z"/><path class="d" d="M113.21,26.25c-1.74-1.38-3.58-2.71-3.05-5.38,.73-.4,1.46-.79,2.19-1.19,1.59,.04,3.21-.05,4.78,.16,1.81,.25,4.58-1.13,5.21,1.11,.51,1.8-2.05,2.98-3.52,4.19-2.32-1.97-4.77-4.58-5.6,1.1Z"/><path class="d" d="M95.14,33.02c5.47,.06,10.29-2.65,15.5-3.67,1.8-.35,1.92-1.88,2.53-3.1,3,4.48-.88,6.02-3.58,6.07-3.85,.08-7.05,2.19-10.65,2.27-2.28,.05-1.73,2.06-2.6,3.06-1.81-1.48-.9-3.19-1.21-4.63Z"/><path class="d" d="M116.69,42.05c-2.49-.74-4.85-2.64-7.62-.86-1.04,.02-2.09,.04-3.13,.06l-.14-.19c2.8-2.1,5.95-3.12,9.45-3.03,.48,1.34,.97,2.68,1.45,4.02Z"/><path class="d" d="M116.69,42.05c-.48-1.34-.97-2.68-1.45-4.02,1.85-.14,3.75,1.48,5.57-.12,.37,0,.73,.02,1.1,.02-.74,1.4-1.49,2.8-2.23,4.2v-.02c-1.01,0-2.03-.01-3.04-.02l.06-.04Z"/><path class="d" d="M100.39,44.21c.8-1.18,1.85-1.94,3.32-2.03l.15,.17c-.27,1.91-1.73,2.04-3.2,2.14l-.27-.27Z"/><path class="d" d="M100.49,46.44c-1.1-.03-2.19-.05-3.29-.08,.65-1.33,1.81-1.91,3.19-2.16l.26,.27c-.06,.65-.11,1.31-.16,1.96Z"/><path class="d" d="M103.7,42.18c.7-.37,1.39-.75,2.09-1.12l.14,.19c-.69,.37-1.38,.73-2.08,1.1l-.15-.17Z"/><path class="d" d="M97.24,46.34c-.38,1.09-1.28,1.18-2.24,1.14,.44-.99,1.29-1.16,2.24-1.14Z"/><path class="d" d="M103.85,42.34c.69-.37,1.38-.73,2.08-1.1,1.04-.02,2.09-.04,3.13-.06-1.15,4.53-3.73,6.75-8.58,5.26,.05-.66,.11-1.31,.16-1.96,1.48-.1,2.94-.22,3.2-2.14Z"/><path class="d" d="M116.63,42.09c1.02,0,2.03,.01,3.05,.02,0,1.07-.26,2.05-1.54,2.04-1.28,0-1.52-1-1.51-2.06Z"/><path class="d" d="M157.18,74.27c.21,.16,.44,.21,.7,.17,.85,.97,1.69,1.95,2.54,2.92-.39,.71-.79,1.41-1.18,2.12-6.45,.08-7.87-1.06-8.15-7.1-.11-2.35-1.14-2.8-3.01-2.15-1.32,.46-2.53,1.21-3.79,1.83-2.95,.35-4.75-2.11-7.2-2.95-1.77-.61-3.54-.57-4.86,.99-1.14,1.36-.77,2.74,.59,3.64,4.44,2.93,1.69,3.37-1.26,3.75-.91,.12-1.72,.34-2.21,1.21-2.68,.53-4.7,2.1-6.48,4.06-.36,.3-.73,.59-1.09,.89-1.9,.53-3.24,1.75-4.23,3.4-.35,.31-.7,.62-1.06,.94-1.79,.69-3.17,1.97-4.7,3.05-7.26,5.13-10.06,13.94-16.71,19.47v-.03c-8.54,3.7-11.58,8.55-9.43,15.04-.07,.43-.14,.86-.21,1.28-.28,.27-.57,.54-.85,.81l-.18,.11c-1.72-.4-3.45-.81-5.17-1.21v.08c-.33-1.81,.28-3.83-1.15-5.41-.05-.57-.11-1.15-.16-1.72,0-1.15-.18-2.34-1.68-1.96-4.56,1.16-9.17,.47-13.75,.53-10.84,.13-21.56,8.54-23.68,19.13-.51,2.52-1.59,5.97,2.97,6.46,.68,.8,1.36,1.61,2.03,2.41,.24,3.72,1.88,3.85,4.4,1.71,.63,.05,1.26,.1,1.89,.15,.39,.03,.78,.06,1.17,.09,.73,0,1.47-.01,2.2-.02,2.24,.28,3.44-.55,3.14-2.96,.24-.24,.52-.38,.85-.42,5.54,1.51,4.84,8.13,8.9,10.86-1.94-.36-4.7,1.36-5.43-2.11-.14-.93,.35-2.08-.85-2.62-.19-.09-.79,.24-.78,.29,.15,.79,.38,1.57,.59,2.36-3.63-.42-6.33-5.54-10.72-2.1-5.84,1.24-11.42-.24-17.03-1.58-1.7-.41-3.48-.46-5.23-.67l-.07-.1c-.82-4.19,.91-8.86-2.4-12.57l.04,.04c.17-2.61,.54-5.34-3.39-5.36l-.81-1c-1.06-5.82-3.78-10.98-6.5-16.14v.09c.18-1.5-.55-2.22-2-2.31-.46-1.88,1.29-4.65-2.14-5.33h-2.12v-3.19c0-.34,0-.68,0-1.02,1.39-1.1,2.79-2.2,4.18-3.3,.52-.09,1.29,0,1.51-.31,2.74-3.75,3.47-8.81,7.91-11.56,.82-.51,.71-3.02-.87-4.19,.1-1.31,.77-2.07,2.12-2.15,2.02-.17,5.42,1.02,3.19-3.28,9.39-12.71,19.83-24.53,30.5-36.15,1.56-1.7,3.41-3.15,4.33-5.37,.34-.83,.76-1.7,.04-2.48-.8-.86-1.65-.2-2.41,.17-2.24,1.09-4.45,2.23-6.68,3.35-2.69-.48-5.57-.38-7.73-2.5,.04-.29,.18-.53,.41-.72,1.11-.06,1.82-.58,1.96-1.74,.32-.15,.65-.3,.97-.44,3.37,.25,6.1-.4,6.47-4.48,1.69-1.25,2.98-3.07,5.17-3.61,.22,2.05,.69,3.5,3.31,3.92,5.25,.83,10.39,2.18,14.82,5.42,2.05,1.5,4.43,.89,6.71,.73,1.19-.08,1.99-.72,1.97-2.02-.01-1.26-.76-2.03-1.95-2.08-4.37-.19-6.91-2.77-9.95-5.72-2.55-2.48-1.18-3.01,.13-4.24,4.51-4.21,11.55-3.77,16.03,.91,4.06,4.24,6.22,4.38,9.84,.62v.02c1.48,.24,3.08-.65,4.5,.39q-1.81,3.91-7.45,5.1c-1.51,.32-3.21,.46-3.62,2.42-.4,1.95,.16,3.44,2.15,4.17,.31,1.44-.6,3.15,1.21,4.63,.86-1,.32-3.01,2.6-3.06,3.6-.08,6.8-2.19,10.65-2.27,2.7-.06,6.58-1.59,3.58-6.07h.04c.83-5.68,3.28-3.07,5.6-1.1l.06,3.07c-1.78,1.27-1.51,3.18,.06,3.66,4,1.22,2.43,3.67,1.87,6.02-1.82,1.6-3.72-.02-5.57,.12-3.5-.09-6.65,.93-9.45,3.03-.7,.37-1.39,.75-2.09,1.12-1.47,.09-2.52,.85-3.31,2.03-1.38,.25-2.54,.83-3.19,2.16l.04-.02c-.95-.01-1.81,.15-2.24,1.14-2.61,1.51-2.4,3.59-1.23,5.91,1.58,3.14,4.21,4.52,7.58,5.05,3.32,.52,6.26,1.63,5.84,6-.13,1.35-.29,3.04,1.68,3.34,2.19,.33,3.29-.84,3.51-2.96,.62-.63,1.14-1.46,1.89-1.85,6.47-3.32,10.68-7.79,11.31-15.73,.32-3.99,4.75-4.79,8.59-4.05,2.78,.53,6.08,.94,6,4.73-.13,6.08,2.98,5.44,6.79,3.6,3.11-1.5,5.01-1.38,5.14,2.81,.09,3.03,2.1,5.19,4.39,6.98,3.58,2.8,3.66,5.22-.38,7.8-3.66,2.33-2.54,4.11,1.07,5.16Z"/><path class="d" d="M43.65,34.38c2.16,2.11,5.04,2.02,7.73,2.5-6.75,6.72-14.69,12.11-20.66,19.77-3.47,4.45-5.71,9.87-10.29,13.46-.22-1.12,.26-2.62-1.33-3.05-1.43-.39-2.32,.53-2.86,1.69-.51,1.08-.82,2.26-1.22,3.39-1.54-.05-3.08-.09-4.62-.14,8.92-14.45,20.03-26.97,33.26-37.61Z"/><path class="d" d="M10.39,71.99c1.54,.05,3.08,.09,4.62,.14,.35,2.14-.88,4.55,1.09,6.42-.03,.71-.05,1.42-.08,2.13-4.98,1.32-1.82,4.9-2.09,7.53-2.26-.52-3.67,1.12-5.35,2.08-3.31-1.36-4.47-3.42-1.67-6.27,2.89-2.95,3.04-6.46,2.57-10.19-.04-.78,.16-1.44,.9-1.85Z"/><path class="d" d="M9.49,73.84c.46,3.73,.32,7.24-2.57,10.19-2.8,2.86-1.64,4.91,1.67,6.27-1.43,1.77-2.1,4.16-4.26,5.35-3.35-.26-2.37-3.99-4.32-5.38,2.83-5.67,4.85-11.8,9.49-16.43Z"/><path class="d" d="M111.39,292.27c-.12-.68-.25-1.36-.37-2.05,.14-.35,.29-.7,.43-1.06,1.33-1.97,1.63-4.59,.04-5.87-2.97-2.38-2.32-5.3-2.42-8.22-.15-4.36,.93-8.95-2.48-12.7-.65-.72-.12-1.66-.09-2.51,.22-5.66,.66-11.36,.31-16.99-.32-5.08-1.07-10.52-6.09-13.41-5.33-3.06-11.48-4.93-13.82-11.55-.09-.25-.98-.21-1.49-.31h.06c-.35-.38-.7-.76-1.04-1.14h0c-.58-3.76-1.53-7.22-6.26-7.55-3.27-5.67-3.5-11.35-.11-17.06,7.13-2.11,10.45-6.22,9.45-11.7q-1.51-8.28,5.51-11.87c2.15,.6,4.45,.82,5.88,2.97,.89,1.35,2.75,1.92,3.55,.62,1.87-3.03,5.7-2.48,7.79-4.85,.67,.21,1.34,.41,2.01,.62,.85,4.87,3.93,2.65,6.35,1.87,3.61-1.15,6.66-1.38,7.58,3.3,.38,1.94,1.76,1.88,3.18,1.93,4.79,4.66,12.53,3.44,17.07,8.6,.17,9.14,6.36,12.09,13.97,13.5,1.38,.26,2.84,.29,4.25,.21,6.02-.33,11.87-.49,15.11,6.15,.46,.94,1.95,1.46,3.06,1.99,4.04,1.92,4.23,4.54,1.29,7.51-5.62,5.69-7.34,12.8-7.71,20.44-.49,10.21-3.56,13.42-13.8,14.33-5.52,.49-7.42,2.66-6.26,8.04,.73,3.37,1.06,6.65,.71,10.03-.15,.21-.19,.44-.14,.69-5.97,4.72-9.49,11.32-13.49,17.55-.43,.32-.86,.65-1.3,.97-1.79,.77-3.66,1.41-5.35,2.35-2.83,1.57-6.93,.49-8.75,4.16-1.89,1.37-4.1,.82-6.19,1.08-3.51,.45-6.98-1.48-10.47-.08Zm-21.05-78.55c-.82-.1-1.33,.25-1.43,1.07-.13,1.09-.1,2.17,1.26,2.44,.73,.14,1.37-.19,1.54-1.01,.25-1.21-.31-2-1.37-2.5Z"/><path class="d" d="M93.02,168.28q-7.01,3.59-5.51,11.87c1,5.48-2.32,9.59-9.45,11.7,.2-2.38,1.94-3.79,3.63-4.95,3.01-2.07,3.52-4.48,3.1-8.11-.51-4.42-1.99-6.44-6.54-6.1-6.69,.5-10.62-3.84-14.3-8.51-1.08-1.37-2.17-2.73-3.25-4.1l.32-.37c3.69-.2,6.83,.22,6.53,5.18-.07,1.08,.86,2,2.03,2.08,.58,.04,1.44-.3,1.75-.76,1.45-2.12-2.27-10.07-4.95-10.77-4.05-2.73-3.36-9.34-8.9-10.86,.52-.48,.97-1.08,1.56-1.4,2-1.1,3.34-4.59,6.13-2.74,2.63,1.75,.29,4.11-.41,6.16-.76,2.24-.1,4.41,2.15,4.47,5.92,.16,6.11,4.55,6.61,8.46,.5,3.94,.35,7.7,5.38,9.12,5.1,1.43,9.34,1.17,12.79-3.34,.82-1.07,2.26-1.65,3.41-2.46,.04,.42,.08,.84,.12,1.26-.02,.69-.05,1.39-.07,2.08-1.36,.04-2.08,.73-2.14,2.1Z"/><path class="d" d="M41.79,143.62c-4.56-.49-3.48-3.93-2.97-6.46,2.12-10.59,12.84-19,23.68-19.13,4.58-.06,9.19,.63,13.75-.53,1.5-.38,1.69,.81,1.68,1.96-5.12-.06-10.25-.4-15.35-.12-11.93,.66-17.76,8.62-21.74,18.14-.9,2.14,.74,4.07,.95,6.14Z"/><path class="d" d="M112.26,167.64c-.67-.21-1.34-.41-2.01-.62-.39-.64-.78-1.28-1.18-1.91,3.5-.01,6.76-.24,10.2-1.82,3.62-1.67,7.59-.05,9.98,3.43,.9,1.31,2.02,2.39,2.88,3.64,2.28,3.29,5.02,5.09,9.15,4.48,1.23-.18,1.83,.83,2.01,1.99-5.06,.7-9.54-.92-13.8-3.41-2.07-7.75-3.97-8.75-11.57-6.47-1.8,.54-3.77,.47-5.67,.69Z"/><path class="d" d="M109.07,165.11c.39,.64,.78,1.28,1.18,1.91-2.09,2.37-5.92,1.82-7.79,4.85-.8,1.3-2.66,.73-3.55-.62-1.43-2.15-3.73-2.37-5.88-2.97,.06-1.37,.78-2.06,2.14-2.1,2.22-.09,3.44,2.41,5.78,2.17,1.88-.19,3.8-.45,3.58-2.79-.17-1.85-1.9-2.32-3.6-2.17-1.9,.17-3.79,.47-5.69,.71-.04-.42-.08-.84-.12-1.26,0-.29,.03-.57,.09-.85,4.11-2.1,7.9-.62,11.68,1.05v-.03c.36,.36,.72,.72,1.09,1.08l-.02-.02c.37,.35,.75,.7,1.12,1.05h0Z"/><path class="d" d="M85.65,125.53c-2.16-6.49,.88-11.34,9.43-15.04,.76,3.32-2.51,3.9-3.94,5.7-1.98,2.49-5.74,4.08-3.88,8.37,.03,.08-1.05,.64-1.61,.97Z"/><path class="d" d="M143.44,283.78c4-6.23,7.52-12.84,13.49-17.55-.05,.68,.16,1.53-.17,2.03-2.92,4.44-5.82,8.9-8.97,13.18-.95,1.29-2.27,2.75-4.35,2.35Z"/><path class="d" d="M128.04,291.26c1.82-3.66,5.92-2.58,8.75-4.16,1.7-.94,3.56-1.58,5.35-2.35,.39,3.13-1.73,3.76-4.12,4.38-2.07,.53-4.77,.19-5.46,3.17-1.64,.26-2.22,.79-.91,2.34,1.1,1.31,.05,1.76-1.13,1.96-.83-1.78-1.65-3.56-2.48-5.34Z"/><path class="d" d="M129.49,173.42c4.27,2.49,8.75,4.11,13.8,3.41,.63,.4,1.26,.8,1.9,1.2,.42,.69,.83,1.38,1.25,2.08h-.01c0,1.08,0,2.15,0,3.22-4.54-5.15-12.29-3.94-17.07-8.6,.04-.44,.09-.88,.13-1.32Z"/><path class="d" d="M106.88,163.04c-3.77-1.67-7.56-3.16-11.68-1.05-.09-2.73-.28-5.41,3.72-2.65,2.41,1.66,7.21-1.69,7.96,3.7Z"/><path class="d" d="M79.24,126.52c1.73,.4,3.45,.81,5.17,1.21-2.45,3.07-3.53,2.81-5.17-1.21Z"/><path class="d" d="M48.23,147.75c-2.52,2.14-4.16,2.01-4.4-1.71,1.69,0,3.09,.74,4.4,1.71Z"/><path class="d" d="M117.54,87.06c.99-1.66,2.33-2.88,4.23-3.4,.1,3.01-1.79,3.55-4.23,3.4Z"/><path class="d" d="M56.64,145c.29,2.41-.91,3.24-3.14,2.96,.21-1.88,1.63-2.47,3.14-2.96Z"/><path class="d" d="M78.09,121.19c1.42,1.58,.82,3.59,1.16,5.41-2.04-1.45-.98-3.56-1.16-5.41Z"/><path class="d" d="M109.07,165.12c-.37-.35-.75-.7-1.12-1.05,.37,.35,.75,.7,1.12,1.05Z"/><path class="d" d="M107.98,164.09c-.37-.36-.74-.72-1.1-1.08,.37,.36,.74,.72,1.1,1.08Z"/><path class="d" d="M51.29,147.98c-.39-.03-.78-.06-1.17-.09,.43-.48,.82-.48,1.17,.09Z"/><path class="d" d="M84.59,127.62c.28-.27,.57-.54,.85-.81-.28,.27-.57,.54-.85,.81Z"/><path class="d" d="M85.41,217.6c.52,.1,1.4,.06,1.49,.31,2.33,6.61,8.49,8.49,13.82,11.55,5.02,2.89,5.77,8.33,6.09,13.41,.35,5.64-.09,11.33-.31,16.99-.03,.86-.57,1.79,.09,2.51,3.41,3.75,2.33,8.34,2.48,12.7,.1,2.93-.55,5.84,2.42,8.22,1.59,1.27,1.29,3.9-.04,5.87-.32-2.11-1.66-3.45-3.41-4.48-.07-.31-.15-.62-.24-.93-.27-.38-.54-.76-.81-1.15h.04c-.75-3.5-.8-6.99,.43-10.39,.84-2.33,.04-4.12-1.51-5.77-2.17-6.23-1.15-12.68-1.01-19,.2-8.96-2.42-15.69-11.57-18.61-5.48-1.75-5.87-7.09-7.95-11.24Z"/><path class="d" d="M5.27,125.58c-.2-.75-.4-1.51-.6-2.26,0,0,.35,.01,.35,.01h.34c1.82,0,3.58,5.27,5.47,.06,2.04,2.92,4.07,5.84,6.11,8.76,.13,.67,.26,1.34,.39,2.01-.1,.68-.2,1.36-.3,2.05l.02-.05c-3.17,1.92-5.22-.29-7.41-2.01h-.01c-.59-3.31-3.15-5.59-4.37-8.57Z"/><path class="d" d="M26.94,149c1.75,.21,3.53,.26,5.23,.67,5.61,1.34,11.19,2.81,17.03,1.58,2.65,3.43,4.93,7.38,10.35,6.57,.95-.14,1.3,1.01,1.49,1.89l-.32,.37c-4.59-1.6-10.31-.61-13.18-6.21-.72-1.4-2.94-.41-4.49-.39-5.79,.06-11.49-.27-16.1-4.47Z"/><path class="d" d="M105.95,266.45c1.54,1.65,2.35,3.44,1.51,5.77-1.23,3.4-1.17,6.9-.43,10.4-4.32-1.7-2.12-5.38-1.94-7.98,.19-2.7,.76-5.43,.86-8.19Z"/><path class="d" d="M24.47,136.33c3.3,3.71,1.58,8.38,2.4,12.57-3.72-3.63-3.75-7.97-2.4-12.57Z"/><path class="d" d="M78.17,208.92c4.73,.32,5.68,3.78,6.26,7.55-2.71-2-5.07-4.29-6.26-7.55Z"/><path class="d" d="M9.66,134.15c2.19,1.72,4.24,3.93,7.41,2.01-.62,3.7-3.52,2.15-5.43,2.08-2.57-.1-1.82-2.45-1.98-4.08Z"/><path class="d" d="M108.04,284.68c1.75,1.03,3.08,2.37,3.41,4.48-.14,.35-.29,.71-.43,1.06-.65-.02-1.31-.03-1.96-.05-.34-1.83-.68-3.66-1.01-5.49Z"/><path class="d" d="M21.53,133.01c-.14-.66-.27-1.33-.41-1.99,3.93,.02,3.55,2.76,3.38,5.36-.99-1.12-1.98-2.25-2.97-3.37Z"/><path class="d" d="M17.04,136.2c.1-.68,.2-1.37,.3-2.05,.96,.84,.87,1.52-.3,2.05Z"/><path class="d" d="M84.43,216.46c.35,.38,.7,.76,1.04,1.14-.35-.38-.7-.76-1.04-1.14Z"/><path class="d" d="M106.99,282.61c.27,.38,.54,.76,.81,1.15-.27-.38-.54-.76-.81-1.15Z"/><path class="d" d="M128.04,291.26c.82,1.78,1.65,3.56,2.48,5.34l-.07,.04c-.3,.33-.6,.66-.91,.99-2.17,3.14-2.11,5.46,2.07,6.82,2.24,.73,3.75,2.58,2.39,4.97-2.54,4.49-.38,7.34,2.92,9.98,1.26,1.01,2.7,2,1.86,3.91-.75,1.7-2.43,.96-3.76,1.17-5.76,.92-10.11-1.86-13.48-5.88-3.5-4.18-7.15-8.36-9.36-13.48-1.26-3.48-.85-7.14-1.17-10.72,.13-.71,.26-1.42,.39-2.13,3.49-1.41,6.96,.53,10.47,.08,2.09-.27,4.29,.29,6.19-1.08Z"/><path class="d" d="M129.54,297.63c.3-.33,.6-.66,.91-.99-.3,.33-.6,.66-.91,.99Z"/><path class="d" d="M16.02,80.69c.03-.71,.05-1.42,.08-2.13,2.55-1.38,2.36-4.16,3.25-6.39l1.08-2.06c4.58-3.59,6.82-9,10.29-13.46,5.97-7.66,13.91-13.06,20.66-19.77,2.22-1.12,4.44-2.27,6.68-3.35,.76-.37,1.61-1.03,2.41-.17,.72,.77,.3,1.64-.04,2.48-.91,2.22-2.77,3.67-4.33,5.37-10.67,11.62-21.11,23.45-30.5,36.16-1.94,.24-2.37,1.95-3.2,3.28-1.35,.08-2.02,.84-2.12,2.15-1.91,.3-4.59,2.18-4.26-2.09Z"/><path class="d" d="M61.03,159.71c-.19-.89-.54-2.04-1.49-1.89-5.42,.81-7.69-3.14-10.35-6.57,4.38-3.43,7.09,1.69,10.72,2.1,.35,0,.7-.01,1.04-.03,.74,3.47,3.49,1.74,5.43,2.11,2.69,.71,6.4,8.66,4.95,10.77-.31,.46-1.18,.8-1.75,.76-1.17-.09-2.09-1-2.03-2.08,.3-4.96-2.84-5.37-6.53-5.18Z"/><path class="d" d="M3.33,101.94c.33-2.1,.66-4.19,1-6.29,2.17-1.19,2.83-3.58,4.26-5.35,1.68-.97,3.09-2.61,5.35-2.08,.54,3.8-2.16,6.93-2.2,10.61-1.39,1.1-2.79,2.2-4.18,3.29-1.41-.06-2.81-.12-4.22-.18Z"/><path class="d" d="M11.73,98.83c.04-3.68,2.74-6.81,2.2-10.61,.27-2.63-2.88-6.21,2.09-7.53-.33,4.27,2.35,2.39,4.26,2.09,1.58,1.17,1.69,3.68,.87,4.19-4.44,2.75-5.17,7.81-7.91,11.56-.22,.31-.99,.21-1.51,.31Z"/><path class="d" d="M4.19,110.75c-.33-1.46-.65-2.92-.98-4.38l.05-.05c2.3,.11,2.38-2.74,4.27-3.18,0,1.07,0,2.13,0,3.2,.25,.81-.58,2.28,.85,2.31,1.15,.02,1.16-1.35,1.27-2.32,3.44,.68,1.69,3.45,2.14,5.33-.7,.01-1.4,.02-2.11,.03-1.5,.04-2.99,.08-4.49,.13l.08-.03c-.35-.38-.71-.76-1.06-1.13l-.04,.09Z"/><path class="d" d="M20.31,130.01c-4.17-4.57-6.59-9.85-6.5-16.14,2.73,5.15,5.44,10.31,6.5,16.14Z"/><path class="d" d="M9.7,111.7c.7-.01,1.4-.02,2.11-.03,1.45,.09,2.18,.81,2.01,2.31-2.1-.65-3.12,.71-4.07,2.19-.02-1.49-.03-2.98-.05-4.46Z"/><path class="d" d="M22.4,80.62c.82-1.33,1.26-3.04,3.2-3.28,2.22,4.3-1.18,3.11-3.2,3.28Z"/><path class="d" d="M60.95,153.33c-.35,.02-.7,.02-1.04,.03-.21-.78-.43-1.56-.59-2.36-.01-.05,.59-.38,.78-.29,1.2,.55,.71,1.7,.85,2.62Z"/><path class="d" d="M9.66,106.34c-.11,.97-.12,2.34-1.27,2.32-1.43-.03-.61-1.5-.85-2.31,.71,0,1.41,0,2.12,0Z"/><path class="d" d="M143.42,62.1c-.36,.69-.72,1.38-1.08,2.06-1.45-.01-2.89-.02-4.34-.03,.4-1.14,.71-2.31,1.22-3.39,.54-1.16,1.43-2.08,2.86-1.69,1.6,.44,1.12,1.93,1.33,3.05Z"/><path class="d" d="M15.01,72.13c1.45,.01,2.89,.02,4.34,.03-.89,2.23-.7,5.01-3.25,6.39-1.97-1.87-.74-4.28-1.09-6.42Z"/><path class="d" d="M129.49,173.42c-.04,.44-.09,.88-.13,1.32-1.41-.05-2.79,.02-3.18-1.93-.92-4.68-3.98-4.45-7.58-3.3-2.41,.77-5.5,2.99-6.35-1.87,1.89-.21,3.87-.15,5.67-.69,7.6-2.28,9.5-1.28,11.57,6.47Z"/><path class="d" d="M90.34,213.71c1.05,.51,1.62,1.3,1.36,2.51-.17,.82-.82,1.16-1.54,1.01-1.36-.27-1.39-1.35-1.26-2.44,.1-.82,.61-1.17,1.44-1.08Z"/><path class="d" d="M95.23,164.11c1.9-.24,3.79-.54,5.69-.71,1.7-.15,3.43,.32,3.6,2.17,.22,2.34-1.7,2.59-3.58,2.79-2.34,.24-3.56-2.26-5.78-2.17,.02-.69,.05-1.39,.07-2.08Z"/><path class="d" d="M5.37,123.32c-.04-.63-.09-1.27-.13-1.9,.42-.04,.84-.08,1.26-.11,1,0,2.01,0,3.01,0,.44,.7,.88,1.39,1.32,2.09-1.89,5.22-3.65-.05-5.47-.07Z"/><path class="d" d="M9.51,121.3c-1,0-2.01,0-3.01,0-.58-2.86,1.21-6.07-1.3-8.64-.11-.28-.11-.57,0-.85,1.49-.04,2.99-.08,4.49-.13,.02,1.49,.03,2.98,.05,4.46-.08,1.71-.16,3.43-.23,5.14Z"/></g></g></g></g></svg>