<?xml version="1.0" encoding="UTF-8"?><svg xmlns="http://www.w3.org/2000/svg" viewBox="0 0 275.38 807.49"><defs><style>.m{opacity:.3;}.n{fill:none;stroke:#fdfeff;stroke-linecap:round;stroke-linejoin:round;stroke-width:3px;}</style></defs><g id="a"/><g id="b"><g id="c"><g class="m"><g id="d"><path class="n" d="M118.59,63.09c1.8,1.16,3.89,1.51,5.86,1.19,.52,1.92,1.7,3.68,3.5,4.85l4.68,3.02c1.8,1.16,3.89,1.51,5.86,1.19,.52,1.92,1.7,3.68,3.5,4.85l4.68,3.02c1.8,1.16,3.89,1.51,5.86,1.19,.52,1.92,1.7,3.68,3.5,4.85l4.68,3.02c1.8,1.16,3.89,1.51,5.86,1.19,.52,1.92,1.7,3.68,3.5,4.85l4.68,3.02c1.08,.7,2.27,1.09,3.47,1.24,.14,.71,.56,1.36,1.21,1.78l4.68,3.02c6.45,4.16,15.09,2.3,19.25-4.16l21.14-32.78c4.16-6.45,2.3-15.09-4.16-19.25l-4.68-3.02c-.66-.42-1.42-.53-2.13-.37-.63-1.03-1.48-1.95-2.56-2.65l-4.68-3.02c-1.8-1.16-3.89-1.51-5.86-1.19-.52-1.92-1.7-3.68-3.5-4.85l-4.68-3.02c-1.8-1.16-3.89-1.51-5.86-1.19-.52-1.92-1.7-3.68-3.5-4.85l-4.68-3.02c-1.8-1.16-3.89-1.51-5.86-1.19-.52-1.92-1.7-3.68-3.5-4.85l-4.68-3.02c-1.8-1.16-3.89-1.51-5.86-1.19-.52-1.92-1.7-3.68-3.5-4.85l-4.68-3.02c-2.11-1.36-4.61-1.62-6.85-.96-.38-.12-21.78,2.38-21.78,2.38l-3.83-2.47c-3.87-2.5-9.06-1.38-11.55,2.49l-9.06,14.05c-2.5,3.87-1.38,9.06,2.49,11.55l3.83,2.47s6.55,20.53,6.81,20.83c.33,2.31,1.59,4.48,3.7,5.85l4.68,3.02Z"/></g><g id="e"><path class="n" d="M103.08,138.41c-1.21,1.78-2.99,2.91-4.93,3.38,.27,1.98-.13,4.05-1.34,5.83l-3.14,4.6c-1.21,1.78-2.99,2.91-4.93,3.38,.27,1.98-.13,4.05-1.34,5.83l-3.14,4.6c-1.21,1.78-2.99,2.91-4.93,3.38,.27,1.98-.13,4.05-1.34,5.83l-3.14,4.6c-1.21,1.78-2.99,2.91-4.93,3.38,.27,1.98-.13,4.05-1.34,5.83l-3.14,4.6c-.72,1.06-1.66,1.88-2.71,2.49,.14,.71,.01,1.47-.43,2.11l-3.14,4.6c-4.32,6.35-13.01,7.99-19.35,3.67L7.58,184.59c-6.35-4.32-7.99-13.01-3.67-19.35l3.14-4.6c.44-.64,1.1-1.04,1.81-1.17,.18-1.2,.6-2.37,1.32-3.44l3.14-4.6c1.21-1.78,2.99-2.91,4.93-3.38-.27-1.98,.13-4.05,1.34-5.83l3.14-4.6c1.21-1.78,2.99-2.91,4.93-3.38-.27-1.98,.13-4.05,1.34-5.83l3.14-4.6c1.21-1.78,2.99-2.91,4.93-3.38-.27-1.98,.13-4.05,1.34-5.83l3.14-4.6c1.21-1.78,2.99-2.91,4.93-3.38-.27-1.98,.13-4.05,1.34-5.83l3.14-4.6c1.42-2.08,3.62-3.28,5.94-3.56,.3-.26,20.99-6.29,20.99-6.29l2.57-3.77c2.59-3.81,7.8-4.8,11.61-2.2l13.81,9.41c3.81,2.59,4.8,7.8,2.2,11.61l-2.57,3.77s1.96,21.46,1.83,21.83c.59,2.26,.28,4.75-1.14,6.83l-3.14,4.6Z"/></g><g id="f"><path class="n" d="M124.32,203.44c1.21,1.78,2.99,2.91,4.93,3.38-.27,1.98,.13,4.05,1.34,5.83l3.14,4.6c1.21,1.78,2.99,2.91,4.93,3.38-.27,1.98,.13,4.05,1.34,5.83l3.14,4.6c1.21,1.78,2.99,2.91,4.93,3.38-.27,1.98,.13,4.05,1.34,5.83l3.14,4.6c1.21,1.78,2.99,2.91,4.93,3.38-.27,1.98,.13,4.05,1.34,5.83l3.14,4.6c.72,1.06,1.66,1.88,2.71,2.49-.14,.71-.01,1.47,.43,2.11l3.14,4.6c4.32,6.35,13.01,7.99,19.35,3.67l32.23-21.96c6.35-4.32,7.99-13.01,3.67-19.35l-3.14-4.6c-.44-.64-1.1-1.04-1.81-1.17-.18-1.2-.6-2.37-1.32-3.44l-3.14-4.6c-1.21-1.78-2.99-2.91-4.93-3.38,.27-1.98-.13-4.05-1.34-5.83l-3.14-4.6c-1.21-1.78-2.99-2.91-4.93-3.38,.27-1.98-.13-4.05-1.34-5.83l-3.14-4.6c-1.21-1.78-2.99-2.91-4.93-3.38,.27-1.98-.13-4.05-1.34-5.83l-3.14-4.6c-1.21-1.78-2.99-2.91-4.93-3.38,.27-1.98-.13-4.05-1.34-5.83l-3.14-4.6c-1.42-2.08-3.62-3.28-5.94-3.56-.3-.26-20.99-6.29-20.99-6.29l-2.57-3.77c-2.59-3.81-7.8-4.8-11.61-2.2l-13.81,9.41c-3.81,2.59-4.8,7.8-2.2,11.61l2.57,3.77s-1.96,21.46-1.83,21.83c-.59,2.26-.28,4.75,1.14,6.83l3.14,4.6Z"/></g><g id="g"><path class="n" d="M59.89,331.77c1.8,1.16,3.89,1.51,5.86,1.19,.52,1.92,1.7,3.68,3.5,4.85l4.68,3.02c1.8,1.16,3.89,1.51,5.86,1.19,.52,1.92,1.7,3.68,3.5,4.85l4.68,3.02c1.8,1.16,3.89,1.51,5.86,1.19,.52,1.92,1.7,3.68,3.5,4.85l4.68,3.02c1.8,1.16,3.89,1.51,5.86,1.19,.52,1.92,1.7,3.68,3.5,4.85l4.68,3.02c1.08,.7,2.27,1.09,3.47,1.24,.14,.71,.56,1.36,1.21,1.78l4.68,3.02c6.45,4.16,15.09,2.3,19.25-4.16l21.14-32.78c4.16-6.45,2.3-15.09-4.16-19.25l-4.68-3.02c-.66-.42-1.42-.53-2.13-.37-.63-1.03-1.48-1.95-2.56-2.65l-4.68-3.02c-1.8-1.16-3.89-1.51-5.86-1.19-.52-1.92-1.7-3.68-3.5-4.85l-4.68-3.02c-1.8-1.16-3.89-1.51-5.86-1.19-.52-1.92-1.7-3.68-3.5-4.85l-4.68-3.02c-1.8-1.16-3.89-1.51-5.86-1.19-.52-1.92-1.7-3.68-3.5-4.85l-4.68-3.02c-1.8-1.16-3.89-1.51-5.86-1.19-.52-1.92-1.7-3.68-3.5-4.85l-4.68-3.02c-2.11-1.36-4.61-1.62-6.85-.96-.38-.12-21.78,2.38-21.78,2.38l-3.83-2.47c-3.87-2.5-9.06-1.38-11.55,2.49l-9.06,14.05c-2.5,3.87-1.38,9.06,2.49,11.55l3.83,2.47s6.55,20.53,6.81,20.83c.33,2.31,1.59,4.48,3.7,5.85l4.68,3.02Z"/></g><g id="h"><path class="n" d="M38.56,456.43c.97,1.92,2.59,3.28,4.45,4-.52,1.92-.4,4.04,.57,5.95l2.51,4.97c.97,1.92,2.59,3.28,4.45,4-.52,1.92-.4,4.04,.57,5.95l2.51,4.97c.97,1.92,2.59,3.28,4.45,4-.52,1.92-.4,4.04,.57,5.95l2.51,4.97c.97,1.92,2.59,3.28,4.45,4-.52,1.92-.4,4.04,.57,5.95l2.51,4.97c.58,1.15,1.4,2.08,2.36,2.82-.23,.68-.21,1.45,.15,2.15l2.51,4.97c3.46,6.86,11.85,9.62,18.71,6.17l34.82-17.56c6.86-3.46,9.62-11.85,6.17-18.71l-2.51-4.97c-.35-.7-.96-1.18-1.65-1.39-.02-1.21-.28-2.43-.86-3.58l-2.51-4.97c-.97-1.92-2.59-3.28-4.45-4,.52-1.92,.4-4.04-.57-5.95l-2.51-4.97c-.97-1.92-2.59-3.28-4.45-4,.52-1.92,.4-4.04-.57-5.95l-2.51-4.97c-.97-1.92-2.59-3.28-4.45-4,.52-1.92,.4-4.04-.57-5.95l-2.51-4.97c-.97-1.92-2.59-3.28-4.45-4,.52-1.92,.4-4.04-.57-5.95l-2.51-4.97c-1.13-2.25-3.16-3.73-5.42-4.3-.27-.3-19.99-8.97-19.99-8.97l-2.05-4.07c-2.07-4.11-7.11-5.77-11.22-3.7l-14.92,7.53c-4.11,2.07-5.77,7.11-3.7,11.22l2.05,4.07s-4.75,21.02-4.67,21.41c-.88,2.16-.9,4.67,.23,6.92l2.51,4.97Z"/></g><g id="i"><path class="n" d="M267.42,382.31c-1.21,1.78-2.99,2.91-4.93,3.38,.27,1.98-.13,4.05-1.34,5.83l-3.14,4.6c-1.21,1.78-2.99,2.91-4.93,3.38,.27,1.98-.13,4.05-1.34,5.83l-3.14,4.6c-1.21,1.78-2.99,2.91-4.93,3.38,.27,1.98-.13,4.05-1.34,5.83l-3.14,4.6c-1.21,1.78-2.99,2.91-4.93,3.38,.27,1.98-.13,4.05-1.34,5.83l-3.14,4.6c-.72,1.06-1.66,1.88-2.71,2.49,.14,.71,.01,1.47-.43,2.11l-3.14,4.6c-4.32,6.35-13.01,7.99-19.35,3.67l-32.23-21.96c-6.35-4.32-7.99-13.01-3.67-19.35l3.14-4.6c.44-.64,1.1-1.04,1.81-1.17,.18-1.2,.6-2.37,1.32-3.44l3.14-4.6c1.21-1.78,2.99-2.91,4.93-3.38-.27-1.98,.13-4.05,1.34-5.83l3.14-4.6c1.21-1.78,2.99-2.91,4.93-3.38-.27-1.98,.13-4.05,1.34-5.83l3.14-4.6c1.21-1.78,2.99-2.91,4.93-3.38-.27-1.98,.13-4.05,1.34-5.83l3.14-4.6c1.21-1.78,2.99-2.91,4.93-3.38-.27-1.98,.13-4.05,1.34-5.83l3.14-4.6c1.42-2.08,3.62-3.28,5.94-3.56,.3-.26,20.99-6.29,20.99-6.29l2.57-3.77c2.59-3.81,7.8-4.8,11.61-2.2l13.81,9.41c3.81,2.59,4.8,7.8,2.2,11.61l-2.57,3.77s1.96,21.46,1.83,21.83c.59,2.26,.28,4.75-1.14,6.83l-3.14,4.6Z"/></g></g><g class="m"><g id="j"><path class="n" d="M148.59,595.09c1.8,1.16,3.89,1.51,5.86,1.19,.52,1.92,1.7,3.68,3.5,4.85l4.68,3.02c1.8,1.16,3.89,1.51,5.86,1.19,.52,1.92,1.7,3.68,3.5,4.85l4.68,3.02c1.8,1.16,3.89,1.51,5.86,1.19,.52,1.92,1.7,3.68,3.5,4.85l4.68,3.02c1.8,1.16,3.89,1.51,5.86,1.19,.52,1.92,1.7,3.68,3.5,4.85l4.68,3.02c1.08,.7,2.27,1.09,3.47,1.24,.14,.71,.56,1.36,1.21,1.78l4.68,3.02c6.45,4.16,15.09,2.3,19.25-4.16l21.14-32.78c4.16-6.45,2.3-15.09-4.16-19.25l-4.68-3.02c-.66-.42-1.42-.53-2.13-.37-.63-1.03-1.48-1.95-2.56-2.65l-4.68-3.02c-1.8-1.16-3.89-1.51-5.86-1.19-.52-1.92-1.7-3.68-3.5-4.85l-4.68-3.02c-1.8-1.16-3.89-1.51-5.86-1.19-.52-1.92-1.7-3.68-3.5-4.85l-4.68-3.02c-1.8-1.16-3.89-1.51-5.86-1.19-.52-1.92-1.7-3.68-3.5-4.85l-4.68-3.02c-1.8-1.16-3.89-1.51-5.86-1.19-.52-1.92-1.7-3.68-3.5-4.85l-4.68-3.02c-2.11-1.36-4.61-1.62-6.85-.96-.38-.12-21.78,2.38-21.78,2.38l-3.83-2.47c-3.87-2.5-9.06-1.38-11.55,2.49l-9.06,14.05c-2.5,3.87-1.38,9.06,2.49,11.55l3.83,2.47s6.55,20.53,6.81,20.83c.33,2.31,1.59,4.48,3.7,5.85l4.68,3.02Z"/></g><g id="k"><path class="n" d="M133.08,670.41c-1.21,1.78-2.99,2.91-4.93,3.38,.27,1.98-.13,4.05-1.34,5.83l-3.14,4.6c-1.21,1.78-2.99,2.91-4.93,3.38,.27,1.98-.13,4.05-1.34,5.83l-3.14,4.6c-1.21,1.78-2.99,2.91-4.93,3.38,.27,1.98-.13,4.05-1.34,5.83l-3.14,4.6c-1.21,1.78-2.99,2.91-4.93,3.38,.27,1.98-.13,4.05-1.34,5.83l-3.14,4.6c-.72,1.06-1.66,1.88-2.71,2.49,.14,.71,.01,1.47-.43,2.11l-3.14,4.6c-4.32,6.35-13.01,7.99-19.35,3.67l-32.23-21.96c-6.35-4.32-7.99-13.01-3.67-19.35l3.14-4.6c.44-.64,1.1-1.04,1.81-1.17,.18-1.2,.6-2.37,1.32-3.44l3.14-4.6c1.21-1.78,2.99-2.91,4.93-3.38-.27-1.98,.13-4.05,1.34-5.83l3.14-4.6c1.21-1.78,2.99-2.91,4.93-3.38-.27-1.98,.13-4.05,1.34-5.83l3.14-4.6c1.21-1.78,2.99-2.91,4.93-3.38-.27-1.98,.13-4.05,1.34-5.83l3.14-4.6c1.21-1.78,2.99-2.91,4.93-3.38-.27-1.98,.13-4.05,1.34-5.83l3.14-4.6c1.42-2.08,3.62-3.28,5.94-3.56,.3-.26,20.99-6.29,20.99-6.29l2.57-3.77c2.59-3.81,7.8-4.8,11.61-2.2l13.81,9.41c3.81,2.59,4.8,7.8,2.2,11.61l-2.57,3.77s1.96,21.46,1.83,21.83c.59,2.26,.28,4.75-1.14,6.83l-3.14,4.6Z"/></g><g id="l"><path class="n" d="M154.32,735.44c1.21,1.78,2.99,2.91,4.93,3.38-.27,1.98,.13,4.05,1.34,5.83l3.14,4.6c1.21,1.78,2.99,2.91,4.93,3.38-.27,1.98,.13,4.05,1.34,5.83l3.14,4.6c1.21,1.78,2.99,2.91,4.93,3.38-.27,1.98,.13,4.05,1.34,5.83l3.14,4.6c1.21,1.78,2.99,2.91,4.93,3.38-.27,1.98,.13,4.05,1.34,5.83l3.14,4.6c.72,1.06,1.66,1.88,2.71,2.49-.14,.71-.01,1.47,.43,2.11l3.14,4.6c4.32,6.35,13.01,7.99,19.35,3.67l32.23-21.96c6.35-4.32,7.99-13.01,3.67-19.35l-3.14-4.6c-.44-.64-1.1-1.04-1.81-1.17-.18-1.2-.6-2.37-1.32-3.44l-3.14-4.6c-1.21-1.78-2.99-2.91-4.93-3.38,.27-1.98-.13-4.05-1.34-5.83l-3.14-4.6c-1.21-1.78-2.99-2.91-4.93-3.38,.27-1.98-.13-4.05-1.34-5.83l-3.14-4.6c-1.21-1.78-2.99-2.91-4.93-3.38,.27-1.98-.13-4.05-1.34-5.83l-3.14-4.6c-1.21-1.78-2.99-2.91-4.93-3.38,.27-1.98-.13-4.05-1.34-5.83l-3.14-4.6c-1.42-2.08-3.62-3.28-5.94-3.56-.3-.26-20.99-6.29-20.99-6.29l-2.57-3.77c-2.59-3.81-7.8-4.8-11.61-2.2l-13.81,9.41c-3.81,2.59-4.8,7.8-2.2,11.61l2.57,3.77s-1.96,21.46-1.83,21.83c-.59,2.26-.28,4.75,1.14,6.83l3.14,4.6Z"/></g></g></g></g></svg>