<svg width="187" height="111" viewBox="0 0 187 111" fill="none" xmlns="http://www.w3.org/2000/svg">
<g clip-path="url(#clip0_237_253)">
<path d="M103.014 56.8131C100.714 57.6455 98.2857 58.1477 95.8143 58.2625C87.5857 58.65 80.0714 54.8328 74.7714 48.6478C73.3428 46.9831 71.9571 45.1032 69.3571 45.1463C67.6143 45.175 65.9714 46.2082 65.2286 47.8011C63.8857 50.6855 65.6571 53.6848 67.6143 55.9378C77.8571 67.7625 95.5857 71.1635 109.4 63.8735C125.043 55.6077 132.086 35.5603 124.571 19.4018C120.957 11.6526 114.3 5.28101 106.4 2.05218C102.186 0.330135 96.9286 -0.416083 90.5714 0.229683C88.0857 0.473639 82.6286 1.76517 80.4857 3.31501C77.9857 5.12315 79.1714 6.9313 82.0571 6.12768C87.9857 4.46304 91.2143 4.04688 97.3571 5.18056C110.4 7.59141 119.671 15.7711 120.586 29.5905C120.7 31.413 120.714 33.2499 120.529 35.0723C119.5 45.0028 112.214 53.5125 103.029 56.8275" fill="url(#paint0_linear_237_253)"/>
<path d="M66.2142 39.7649C68.5285 38.8608 69.7428 36.536 69.2285 34.1826C68.6142 31.3412 65.5285 29.5761 62.8142 30.5376C60.1714 31.4704 58.8714 34.4122 59.9142 36.9952C60.8571 39.32 63.9 40.6546 66.2142 39.7505" fill="url(#paint1_linear_237_253)"/>
<path d="M66.3569 24.1804C67.8855 23.549 68.6283 21.7265 67.9997 20.1336C67.3997 18.6125 65.4997 17.8663 63.9712 18.5551C62.4855 19.2152 61.7426 21.009 62.3569 22.444C63.0283 24.0226 64.8283 24.7975 66.3569 24.1804Z" fill="url(#paint2_linear_237_253)"/>
<path d="M72.6287 13.4176C73.7145 13.0158 74.2573 11.796 73.8573 10.7054C73.443 9.61477 72.243 9.05511 71.1573 9.47127C70.0716 9.87308 69.5287 11.0929 69.9287 12.1835C70.343 13.2741 71.543 13.8338 72.6287 13.4176Z" fill="url(#paint3_linear_237_253)"/>
<path d="M2.71429 110.483C1.57143 110.139 0.671429 109.666 0 109.092L1.01429 106.795C1.67143 107.312 2.45714 107.728 3.41429 108.058C4.35714 108.388 5.31429 108.546 6.25714 108.546C7.44286 108.546 8.31429 108.36 8.9 107.972C9.48571 107.599 9.77143 107.097 9.77143 106.465C9.77143 106.006 9.61429 105.633 9.28571 105.332C8.95714 105.03 8.54286 104.801 8.04286 104.629C7.54286 104.456 6.85714 104.27 6 104.055C4.78571 103.768 3.81429 103.481 3.05714 103.194C2.31429 102.907 1.67143 102.447 1.12857 101.845C0.585714 101.228 0.328571 100.395 0.328571 99.3476C0.328571 98.4723 0.571429 97.6686 1.04286 96.9511C1.51429 96.2336 2.24286 95.6596 3.2 95.2291C4.15714 94.7986 5.34286 94.5977 6.72857 94.5977C7.7 94.5977 8.65714 94.7125 9.58571 94.9564C10.5286 95.2004 11.3286 95.5448 12.0143 96.004L11.0857 98.3001C10.3857 97.8839 9.65714 97.5825 8.91429 97.3673C8.15714 97.152 7.42857 97.0516 6.71429 97.0516C5.54286 97.0516 4.68571 97.2525 4.11429 97.6399C3.54286 98.0274 3.25714 98.5584 3.25714 99.2185C3.25714 99.6777 3.41429 100.051 3.74286 100.338C4.07143 100.625 4.48571 100.854 4.98571 101.027C5.48571 101.199 6.17143 101.385 7.02857 101.601C8.21429 101.873 9.17143 102.16 9.92857 102.462C10.6857 102.763 11.3286 103.208 11.8714 103.811C12.4143 104.413 12.6714 105.246 12.6714 106.279C12.6714 107.154 12.4286 107.958 11.9571 108.675C11.4857 109.393 10.7571 109.953 9.78571 110.383C8.81429 110.814 7.64286 111.014 6.24286 111.014C5.01429 111.014 3.82857 110.842 2.68571 110.483" fill="url(#paint4_linear_237_253)"/>
<path d="M23.6426 109.938C22.3426 109.235 21.3283 108.245 20.5855 106.996C19.8426 105.748 19.4712 104.341 19.4712 102.792C19.4712 101.242 19.8426 99.8355 20.5855 98.587C21.3283 97.3385 22.3426 96.3483 23.6426 95.6452C24.9426 94.942 26.3998 94.5833 28.0283 94.5833C29.6569 94.5833 31.114 94.942 32.414 95.6452C33.714 96.3483 34.7283 97.3242 35.4712 98.5726C36.214 99.8211 36.5855 101.227 36.5855 102.792C36.5855 104.356 36.214 105.762 35.4712 107.011C34.7283 108.259 33.714 109.235 32.414 109.938C31.114 110.641 29.6569 111 28.0283 111C26.3998 111 24.9569 110.641 23.6426 109.938ZM30.8855 107.685C31.7283 107.212 32.3998 106.537 32.8855 105.676C33.3712 104.815 33.614 103.854 33.614 102.792C33.614 101.73 33.3712 100.768 32.8855 99.9072C32.3998 99.0462 31.7426 98.3861 30.8855 97.8982C30.0426 97.4246 29.0855 97.1807 28.0283 97.1807C26.9712 97.1807 26.014 97.4246 25.1712 97.8982C24.3283 98.3717 23.6569 99.0462 23.1712 99.9072C22.6855 100.768 22.4426 101.73 22.4426 102.792C22.4426 103.854 22.6855 104.815 23.1712 105.676C23.6569 106.537 24.314 107.197 25.1712 107.685C26.014 108.159 26.9712 108.403 28.0283 108.403C29.0855 108.403 30.0426 108.159 30.8855 107.685Z" fill="url(#paint5_linear_237_253)"/>
<path d="M53.9859 95.4299C55.0431 95.9896 55.8716 96.8219 56.4431 97.9269C57.0288 99.0319 57.3145 100.366 57.3145 101.931V110.77H54.3573V106.666H46.1002V110.77H43.2002V101.931C43.2002 100.366 43.4859 99.0319 44.0716 97.9269C44.6573 96.8219 45.4716 95.9896 46.5288 95.4299C47.5859 94.8703 48.8288 94.5833 50.2573 94.5833C51.6859 94.5833 52.9145 94.8703 53.9859 95.4299ZM54.3716 104.184V101.658C54.3716 100.18 54.0145 99.0749 53.2859 98.3143C52.5573 97.5681 51.5431 97.1807 50.2431 97.1807C48.9431 97.1807 47.9288 97.5538 47.2002 98.3143C46.4716 99.0606 46.1145 100.18 46.1145 101.658V104.184H54.3716Z" fill="url(#paint6_linear_237_253)"/>
<path d="M76.5716 95.5016C77.5859 95.9608 78.3716 96.6065 78.9144 97.4676C79.4573 98.3142 79.7287 99.3331 79.7287 100.495C79.7287 101.658 79.4573 102.662 78.9144 103.509C78.3716 104.37 77.5859 105.03 76.5716 105.475C75.5573 105.934 74.3573 106.164 72.9716 106.164H69.3859V110.77H66.4287V94.8127H72.9573C74.3287 94.8127 75.5287 95.0424 76.5573 95.5016M75.7573 102.849C76.4287 102.304 76.7573 101.514 76.7573 100.495C76.7573 99.4766 76.4287 98.7017 75.7573 98.142C75.0859 97.5967 74.1144 97.3241 72.8287 97.3241H69.3859V103.667H72.8287C74.1144 103.667 75.0859 103.394 75.7573 102.849Z" fill="url(#paint7_linear_237_253)"/>
<path d="M89.7431 110.483C88.6002 110.139 87.7002 109.666 87.0288 109.092L88.0431 106.795C88.7002 107.312 89.486 107.728 90.4431 108.058C91.386 108.388 92.3431 108.546 93.286 108.546C94.4717 108.546 95.3431 108.36 95.9288 107.972C96.5145 107.599 96.8002 107.097 96.8002 106.465C96.8002 106.006 96.6431 105.633 96.3145 105.332C95.986 105.03 95.5717 104.801 95.086 104.629C94.586 104.456 93.9002 104.27 93.0431 104.055C91.8288 103.768 90.8574 103.481 90.1002 103.194C89.3574 102.907 88.7145 102.447 88.1717 101.845C87.6288 101.228 87.3717 100.395 87.3717 99.3476C87.3717 98.4723 87.6145 97.6686 88.086 96.9511C88.5574 96.2336 89.286 95.6596 90.2431 95.2291C91.2002 94.7986 92.386 94.5977 93.7717 94.5977C94.7431 94.5977 95.7002 94.7125 96.6288 94.9564C97.5717 95.2004 98.3717 95.5448 99.0574 96.004L98.1288 98.3001C97.4288 97.8839 96.7002 97.5825 95.9574 97.3673C95.2002 97.152 94.4717 97.0516 93.7574 97.0516C92.586 97.0516 91.7288 97.2525 91.1574 97.6399C90.586 98.0274 90.3002 98.5584 90.3002 99.2185C90.3002 99.6777 90.4574 100.051 90.786 100.338C91.1145 100.625 91.5288 100.854 92.0288 101.027C92.5288 101.199 93.2145 101.385 94.0717 101.601C95.2574 101.873 96.2145 102.16 96.9717 102.462C97.7288 102.763 98.3717 103.208 98.9145 103.811C99.4574 104.413 99.7145 105.246 99.7145 106.279C99.7145 107.154 99.4717 107.958 99.0002 108.675C98.5288 109.393 97.8002 109.953 96.8288 110.383C95.8574 110.814 94.686 111.014 93.286 111.014C92.0574 111.014 90.8717 110.842 89.7288 110.483" fill="url(#paint8_linear_237_253)"/>
<path d="M110.857 97.3241H105.586V94.8127H119.072V97.3241H113.8V110.77H110.857V97.3241Z" fill="url(#paint9_linear_237_253)"/>
<path d="M136.929 95.4299C137.986 95.9896 138.814 96.8219 139.386 97.9269C139.972 99.0319 140.257 100.366 140.257 101.931V110.77H137.3V106.666H129.043V110.77H126.143V101.931C126.143 100.366 126.429 99.0319 127.014 97.9269C127.6 96.8219 128.414 95.9896 129.472 95.4299C130.529 94.8703 131.772 94.5833 133.2 94.5833C134.629 94.5833 135.857 94.8703 136.929 95.4299ZM136.229 98.3143C135.5 97.5681 134.486 97.1807 133.186 97.1807C131.886 97.1807 130.872 97.5538 130.143 98.3143C129.414 99.0606 129.057 100.18 129.057 101.658V104.184H137.314V101.658C137.314 100.18 136.957 99.0749 136.229 98.3143Z" fill="url(#paint10_linear_237_253)"/>
<path d="M163.043 94.8127V110.77H160.614L151.857 99.9645V110.77H148.929V94.8127H151.357L160.114 105.619V94.8127H163.043Z" fill="url(#paint11_linear_237_253)"/>
<path d="M171.4 94.8129H178.343C180.043 94.8129 181.543 95.1429 182.857 95.8031C184.171 96.4632 185.2 97.3959 185.914 98.6014C186.643 99.8068 187 101.199 187 102.777C187 104.356 186.643 105.748 185.914 106.953C185.186 108.159 184.171 109.091 182.857 109.752C181.543 110.412 180.028 110.742 178.343 110.742H171.4V94.7842V94.8129ZM178.214 108.259C179.371 108.259 180.4 108.03 181.286 107.585C182.171 107.14 182.857 106.494 183.328 105.676C183.8 104.844 184.043 103.882 184.043 102.792C184.043 101.701 183.8 100.74 183.328 99.9073C182.857 99.0749 182.171 98.4435 181.286 97.9987C180.4 97.5538 179.371 97.3242 178.214 97.3242H174.357V108.259H178.214Z" fill="url(#paint12_linear_237_253)"/>
</g>
<defs>
<linearGradient id="paint0_linear_237_253" x1="64.7571" y1="33.8526" x2="127.571" y2="33.8526" gradientUnits="userSpaceOnUse">
<stop stop-color="#71B9B6"/>
<stop offset="0.18" stop-color="#6AB1B1"/>
<stop offset="0.45" stop-color="#589EA5"/>
<stop offset="0.77" stop-color="#3A7E91"/>
<stop offset="1" stop-color="#216380"/>
</linearGradient>
<linearGradient id="paint1_linear_237_253" x1="59.5428" y1="35.1584" x2="69.3428" y2="35.1584" gradientUnits="userSpaceOnUse">
<stop stop-color="#71B9B6"/>
<stop offset="0.18" stop-color="#6AB1B1"/>
<stop offset="0.45" stop-color="#589EA5"/>
<stop offset="0.77" stop-color="#3A7E91"/>
<stop offset="1" stop-color="#216380"/>
</linearGradient>
<linearGradient id="paint2_linear_237_253" x1="62.1426" y1="21.339" x2="68.214" y2="21.339" gradientUnits="userSpaceOnUse">
<stop stop-color="#71B9B6"/>
<stop offset="0.18" stop-color="#6AB1B1"/>
<stop offset="0.45" stop-color="#589EA5"/>
<stop offset="0.77" stop-color="#3A7E91"/>
<stop offset="1" stop-color="#216380"/>
</linearGradient>
<linearGradient id="paint3_linear_237_253" x1="69.8002" y1="11.4373" x2="74.0002" y2="11.4373" gradientUnits="userSpaceOnUse">
<stop stop-color="#71B9B6"/>
<stop offset="0.18" stop-color="#6AB1B1"/>
<stop offset="0.45" stop-color="#589EA5"/>
<stop offset="0.77" stop-color="#3A7E91"/>
<stop offset="1" stop-color="#216380"/>
</linearGradient>
<linearGradient id="paint4_linear_237_253" x1="0" y1="102.792" x2="12.6857" y2="102.792" gradientUnits="userSpaceOnUse">
<stop stop-color="#71B9B6"/>
<stop offset="0.18" stop-color="#6AB1B1"/>
<stop offset="0.45" stop-color="#589EA5"/>
<stop offset="0.77" stop-color="#3A7E91"/>
<stop offset="1" stop-color="#216380"/>
</linearGradient>
<linearGradient id="paint5_linear_237_253" x1="19.4712" y1="102.792" x2="36.5855" y2="102.792" gradientUnits="userSpaceOnUse">
<stop stop-color="#71B9B6"/>
<stop offset="0.18" stop-color="#6AB1B1"/>
<stop offset="0.45" stop-color="#589EA5"/>
<stop offset="0.77" stop-color="#3A7E91"/>
<stop offset="1" stop-color="#216380"/>
</linearGradient>
<linearGradient id="paint6_linear_237_253" x1="43.2002" y1="102.677" x2="57.3145" y2="102.677" gradientUnits="userSpaceOnUse">
<stop stop-color="#71B9B6"/>
<stop offset="0.18" stop-color="#6AB1B1"/>
<stop offset="0.45" stop-color="#589EA5"/>
<stop offset="0.77" stop-color="#3A7E91"/>
<stop offset="1" stop-color="#216380"/>
</linearGradient>
<linearGradient id="paint7_linear_237_253" x1="66.443" y1="102.792" x2="79.743" y2="102.792" gradientUnits="userSpaceOnUse">
<stop stop-color="#71B9B6"/>
<stop offset="0.18" stop-color="#6AB1B1"/>
<stop offset="0.45" stop-color="#589EA5"/>
<stop offset="0.77" stop-color="#3A7E91"/>
<stop offset="1" stop-color="#216380"/>
</linearGradient>
<linearGradient id="paint8_linear_237_253" x1="87.0288" y1="102.792" x2="99.7145" y2="102.792" gradientUnits="userSpaceOnUse">
<stop stop-color="#71B9B6"/>
<stop offset="0.18" stop-color="#6AB1B1"/>
<stop offset="0.45" stop-color="#589EA5"/>
<stop offset="0.77" stop-color="#3A7E91"/>
<stop offset="1" stop-color="#216380"/>
</linearGradient>
<linearGradient id="paint9_linear_237_253" x1="105.586" y1="102.792" x2="119.072" y2="102.792" gradientUnits="userSpaceOnUse">
<stop stop-color="#71B9B6"/>
<stop offset="0.18" stop-color="#6AB1B1"/>
<stop offset="0.45" stop-color="#589EA5"/>
<stop offset="0.77" stop-color="#3A7E91"/>
<stop offset="1" stop-color="#216380"/>
</linearGradient>
<linearGradient id="paint10_linear_237_253" x1="126.143" y1="102.691" x2="140.257" y2="102.691" gradientUnits="userSpaceOnUse">
<stop stop-color="#71B9B6"/>
<stop offset="0.18" stop-color="#6AB1B1"/>
<stop offset="0.45" stop-color="#589EA5"/>
<stop offset="0.77" stop-color="#3A7E91"/>
<stop offset="1" stop-color="#216380"/>
</linearGradient>
<linearGradient id="paint11_linear_237_253" x1="148.929" y1="102.792" x2="163.043" y2="102.792" gradientUnits="userSpaceOnUse">
<stop stop-color="#71B9B6"/>
<stop offset="0.18" stop-color="#6AB1B1"/>
<stop offset="0.45" stop-color="#589EA5"/>
<stop offset="0.77" stop-color="#3A7E91"/>
<stop offset="1" stop-color="#216380"/>
</linearGradient>
<linearGradient id="paint12_linear_237_253" x1="171.4" y1="102.792" x2="187" y2="102.792" gradientUnits="userSpaceOnUse">
<stop stop-color="#71B9B6"/>
<stop offset="0.18" stop-color="#6AB1B1"/>
<stop offset="0.45" stop-color="#589EA5"/>
<stop offset="0.77" stop-color="#3A7E91"/>
<stop offset="1" stop-color="#216380"/>
</linearGradient>
<clipPath id="clip0_237_253">
<rect width="187" height="111" fill="#fffdfa"/>
</clipPath>
</defs>
</svg>
