<svg width="171" height="101" viewBox="0 0 171 101" fill="none" xmlns="http://www.w3.org/2000/svg">
<g clip-path="url(#clip0_162_40)">
<path d="M94.2001 51.6948C92.0969 52.4521 89.8761 52.9091 87.6161 53.0136C80.0916 53.3662 73.2203 49.8929 68.3737 44.2651C67.0674 42.7504 65.8003 41.0398 63.4227 41.079C61.829 41.1051 60.3267 42.0453 59.6474 43.4947C58.4194 46.1192 60.0393 48.8482 61.829 50.8983C71.1954 61.6577 87.4071 64.7523 100.039 58.1191C114.344 50.598 120.784 32.3566 113.913 17.6538C110.608 10.6027 104.52 4.8052 97.2961 1.86725C93.4424 0.300349 88.6351 -0.378642 82.8219 0.208947C80.5488 0.430925 75.5586 1.6061 73.5991 3.01632C71.313 4.66156 72.3973 6.30681 75.0361 5.57559C80.4574 4.06092 83.4097 3.68225 89.027 4.71379C100.954 6.90746 109.432 14.3503 110.268 26.9247C110.373 28.583 110.386 30.2543 110.216 31.9126C109.275 40.9484 102.613 48.6916 94.2132 51.7078" fill="white"/>
<path d="M60.5487 36.1825C62.665 35.3599 63.7754 33.2445 63.3051 31.1031C62.7433 28.5177 59.9217 26.9116 57.4396 27.7865C55.0229 28.6352 53.8341 31.312 54.7877 33.6624C55.6499 35.7777 58.4324 36.992 60.5487 36.1694" fill="white"/>
<path d="M60.6792 22.0019C62.077 21.4274 62.7563 19.7691 62.1815 18.3197C61.6329 16.9356 59.8954 16.2566 58.4977 16.8834C57.1391 17.484 56.4598 19.1162 57.0215 20.422C57.6355 21.8583 59.2815 22.5634 60.6792 22.0019Z" fill="white"/>
<path d="M66.4143 12.2089C67.4071 11.8432 67.9035 10.7334 67.5378 9.74098C67.1589 8.74861 66.0616 8.23937 65.0688 8.61804C64.076 8.98365 63.5796 10.0935 63.9453 11.0859C64.3242 12.0783 65.4215 12.5875 66.4143 12.2089Z" fill="white"/>
<path d="M2.48205 100.53C1.43697 100.217 0.61398 99.7856 0 99.2633L0.927502 97.1741C1.52842 97.6442 2.24691 98.0228 3.12215 98.3232C3.98434 98.6235 4.85959 98.7671 5.72177 98.7671C6.80604 98.7671 7.6029 98.5974 8.1385 98.2448C8.6741 97.9053 8.93537 97.4483 8.93537 96.8738C8.93537 96.4559 8.79167 96.1164 8.49121 95.8422C8.19076 95.568 7.81192 95.3591 7.3547 95.2024C6.89748 95.0457 6.27044 94.876 5.48663 94.6801C4.37624 94.419 3.48793 94.1578 2.79557 93.8967C2.11627 93.6355 1.52842 93.2177 1.03201 92.6693C0.5356 92.1078 0.300458 91.3504 0.300458 90.3972C0.300458 89.6007 0.522536 88.8695 0.953629 88.2166C1.38472 87.5638 2.05095 87.0415 2.9262 86.6497C3.80145 86.258 4.88571 86.0752 6.15286 86.0752C7.04118 86.0752 7.91642 86.1797 8.76555 86.4016C9.62773 86.6236 10.3593 86.937 10.9863 87.3548L10.1372 89.444C9.4971 89.0654 8.83086 88.7912 8.15157 88.5953C7.45921 88.3994 6.79297 88.308 6.1398 88.308C5.0686 88.308 4.2848 88.4908 3.76226 88.8434C3.23973 89.1959 2.97846 89.6791 2.97846 90.2797C2.97846 90.6976 3.12215 91.0371 3.42261 91.2982C3.72307 91.5594 4.10191 91.7683 4.55913 91.925C5.01635 92.0817 5.64339 92.2514 6.4272 92.4473C7.51146 92.6954 8.38671 92.9565 9.07907 93.2307C9.77143 93.5049 10.3593 93.9097 10.8557 94.4581C11.3521 95.0065 11.5872 95.7639 11.5872 96.704C11.5872 97.5005 11.3652 98.2318 10.9341 98.8846C10.503 99.5375 9.83675 100.047 8.94843 100.438C8.06012 100.83 6.98892 101.013 5.70871 101.013C4.58526 101.013 3.50099 100.856 2.45592 100.53" fill="white"/>
<path d="M21.6202 100.034C20.4314 99.394 19.5039 98.493 18.8246 97.357C18.1453 96.221 17.8057 94.9414 17.8057 93.5312C17.8057 92.1209 18.1453 90.8413 18.8246 89.7053C19.5039 88.5693 20.4314 87.6683 21.6202 87.0285C22.8089 86.3887 24.1414 86.0623 25.6306 86.0623C27.1199 86.0623 28.4523 86.3887 29.6411 87.0285C30.8299 87.6683 31.7574 88.5562 32.4367 89.6922C33.116 90.8283 33.4556 92.1079 33.4556 93.5312C33.4556 94.9544 33.116 96.2341 32.4367 97.3701C31.7574 98.5061 30.8299 99.394 29.6411 100.034C28.4523 100.674 27.1199 101 25.6306 101C24.1414 101 22.822 100.674 21.6202 100.034ZM28.2433 97.9838C29.0141 97.5529 29.628 96.9392 30.0722 96.1557C30.5164 95.3723 30.7384 94.4974 30.7384 93.5312C30.7384 92.5649 30.5164 91.6901 30.0722 90.9066C29.628 90.1231 29.0271 89.5225 28.2433 89.0785C27.4726 88.6476 26.5973 88.4257 25.6306 88.4257C24.664 88.4257 23.7887 88.6476 23.018 89.0785C22.2472 89.5094 21.6332 90.1231 21.1891 90.9066C20.7449 91.6901 20.5229 92.5649 20.5229 93.5312C20.5229 94.4974 20.7449 95.3723 21.1891 96.1557C21.6332 96.9392 22.2342 97.5398 23.018 97.9838C23.7887 98.4147 24.664 98.6367 25.6306 98.6367C26.5973 98.6367 27.4726 98.4147 28.2433 97.9838Z" fill="white"/>
<path d="M49.3668 86.8326C50.3335 87.3419 51.0911 88.0992 51.6137 89.1047C52.1493 90.1101 52.4106 91.3244 52.4106 92.7477V100.791H49.7064V97.0567H42.1558V100.791H39.5039V92.7477C39.5039 91.3244 39.7652 90.1101 40.3008 89.1047C40.8364 88.0992 41.581 87.3419 42.5477 86.8326C43.5144 86.3234 44.6509 86.0623 45.9572 86.0623C47.2636 86.0623 48.387 86.3234 49.3668 86.8326ZM49.7195 94.7977V92.4996C49.7195 91.1547 49.3929 90.1493 48.7267 89.4572C48.0604 88.7782 47.1329 88.4257 45.9442 88.4257C44.7554 88.4257 43.8279 88.7652 43.1617 89.4572C42.4954 90.1362 42.1688 91.1547 42.1688 92.4996V94.7977H49.7195Z" fill="white"/>
<path d="M70.0196 86.898C70.9471 87.3158 71.6656 87.9034 72.162 88.6869C72.6585 89.4573 72.9067 90.3844 72.9067 91.442C72.9067 92.4997 72.6585 93.4137 72.162 94.1841C71.6656 94.9676 70.9471 95.5682 70.0196 95.973C69.0921 96.3908 67.9948 96.5998 66.7277 96.5998H63.4488V100.791H60.7446V86.2712H66.7146C67.9687 86.2712 69.066 86.4802 70.0066 86.898M69.275 93.5835C69.889 93.0873 70.1895 92.3691 70.1895 91.442C70.1895 90.5149 69.889 89.8098 69.275 89.3006C68.6611 88.8044 67.7727 88.5563 66.597 88.5563H63.4488V94.3277H66.597C67.7727 94.3277 68.6611 94.0796 69.275 93.5835Z" fill="white"/>
<path d="M82.0641 100.53C81.019 100.217 80.196 99.7856 79.582 99.2633L80.5095 97.1741C81.1105 97.6442 81.8289 98.0228 82.7042 98.3232C83.5664 98.6235 84.4416 98.7671 85.3038 98.7671C86.3881 98.7671 87.1849 98.5974 87.7205 98.2448C88.2561 97.9053 88.5174 97.4483 88.5174 96.8738C88.5174 96.4559 88.3737 96.1164 88.0732 95.8422C87.7728 95.568 87.3939 95.3591 86.9498 95.2024C86.4926 95.0457 85.8655 94.876 85.0817 94.6801C83.9713 94.419 83.083 94.1578 82.3907 93.8967C81.7114 93.6355 81.1235 93.2177 80.6271 92.6693C80.1307 92.1078 79.8956 91.3504 79.8956 90.3972C79.8956 89.6007 80.1176 88.8695 80.5487 88.2166C80.9798 87.5638 81.646 87.0415 82.5213 86.6497C83.3965 86.258 84.4808 86.0752 85.748 86.0752C86.6363 86.0752 87.5115 86.1797 88.3606 86.4016C89.2228 86.6236 89.9544 86.937 90.5814 87.3548L89.7323 89.444C89.0922 89.0654 88.426 88.7912 87.7467 88.5953C87.0543 88.3994 86.3881 88.308 85.7349 88.308C84.6637 88.308 83.8799 88.4908 83.3574 88.8434C82.8348 89.1959 82.5736 89.6791 82.5736 90.2797C82.5736 90.6976 82.7173 91.0371 83.0177 91.2982C83.3182 91.5594 83.697 91.7683 84.1542 91.925C84.6114 92.0817 85.2385 92.2514 86.0223 92.4473C87.1066 92.6954 87.9818 92.9565 88.6742 93.2307C89.3665 93.5049 89.9544 93.9097 90.4508 94.4581C90.9472 95.0065 91.1823 95.7639 91.1823 96.704C91.1823 97.5005 90.9603 98.2318 90.5292 98.8846C90.0981 99.5375 89.4318 100.047 88.5435 100.438C87.6552 100.83 86.584 101.013 85.3038 101.013C84.1804 101.013 83.0961 100.856 82.051 100.53" fill="white"/>
<path d="M101.372 88.5563H96.5518V86.2712H108.884V88.5563H104.063V100.791H101.372V88.5563Z" fill="white"/>
<path d="M125.213 86.8326C126.18 87.3419 126.937 88.0992 127.46 89.1047C127.995 90.1101 128.257 91.3244 128.257 92.7477V100.791H125.553V97.0567H118.002V100.791H115.35V92.7477C115.35 91.3244 115.611 90.1101 116.147 89.1047C116.683 88.0992 117.427 87.3419 118.394 86.8326C119.361 86.3234 120.497 86.0623 121.803 86.0623C123.11 86.0623 124.233 86.3234 125.213 86.8326ZM124.573 89.4572C123.907 88.7782 122.979 88.4257 121.79 88.4257C120.602 88.4257 119.674 88.7652 119.008 89.4572C118.342 90.1362 118.015 91.1547 118.015 92.4996V94.7977H125.566V92.4996C125.566 91.1547 125.239 90.1493 124.573 89.4572Z" fill="white"/>
<path d="M149.093 86.2712V100.791H146.872L138.864 90.9589V100.791H136.186V86.2712H138.407L146.415 96.1036V86.2712H149.093Z" fill="white"/>
<path d="M156.735 86.2712H163.084C164.638 86.2712 166.01 86.5716 167.212 87.1722C168.414 87.7728 169.354 88.6216 170.007 89.7184C170.674 90.8152 171 92.0818 171 93.5182C171 94.9545 170.674 96.2211 170.007 97.3179C169.341 98.4147 168.414 99.2635 167.212 99.8641C166.01 100.465 164.625 100.765 163.084 100.765H156.735V86.2451V86.2712ZM162.966 98.5061C164.024 98.5061 164.965 98.2972 165.775 97.8924C166.585 97.4876 167.212 96.9001 167.643 96.1558C168.074 95.3984 168.296 94.5236 168.296 93.5312C168.296 92.5388 168.074 91.664 167.643 90.9067C167.212 90.1493 166.585 89.5748 165.775 89.17C164.965 88.7652 164.024 88.5563 162.966 88.5563H159.439V98.5061H162.966Z" fill="white"/>
</g>
<defs>
<clipPath id="clip0_162_40">
<rect width="171" height="101" fill="white"/>
</clipPath>
</defs>
</svg>
