<?xml version="1.0" encoding="UTF-8"?><svg id="a" xmlns="http://www.w3.org/2000/svg" xmlns:xlink="http://www.w3.org/1999/xlink" viewBox="0 0 652.68 385.69"><defs><style>.o{fill:url(#e);}.p{fill:url(#d);}.q{fill:url(#g);}.r{fill:url(#f);}.s{fill:url(#i);}.t{fill:url(#h);}.u{fill:url(#k);}.v{fill:url(#j);}.w{fill:url(#m);}.x{fill:url(#l);}.y{fill:url(#n);}.a`{fill:url(#c);}.aa{fill:url(#b);}</style><linearGradient id="b" x1="226.02" y1="804.5" x2="445.27" y2="804.5" gradientTransform="translate(0 922.1) scale(1 -1)" gradientUnits="userSpaceOnUse"><stop offset="0" stop-color="#71b9b6"/><stop offset=".18" stop-color="#6ab1b1"/><stop offset=".45" stop-color="#589ea5"/><stop offset=".77" stop-color="#3a7e91"/><stop offset="1" stop-color="#216380"/></linearGradient><linearGradient id="c" x1="207.81" y1="799.93" x2="242.01" y2="799.93" gradientTransform="translate(0 922.1) scale(1 -1)" gradientUnits="userSpaceOnUse"><stop offset="0" stop-color="#71b9b6"/><stop offset=".18" stop-color="#6ab1b1"/><stop offset=".45" stop-color="#589ea5"/><stop offset=".77" stop-color="#3a7e91"/><stop offset="1" stop-color="#216380"/></linearGradient><linearGradient id="d" x1="216.88" y1="847.94" x2="238.1" y2="847.94" gradientTransform="translate(0 922.1) scale(1 -1)" gradientUnits="userSpaceOnUse"><stop offset="0" stop-color="#71b9b6"/><stop offset=".18" stop-color="#6ab1b1"/><stop offset=".45" stop-color="#589ea5"/><stop offset=".77" stop-color="#3a7e91"/><stop offset="1" stop-color="#216380"/></linearGradient><linearGradient id="e" x1="243.62" y1="882.34" x2="258.26" y2="882.34" gradientTransform="translate(0 922.1) scale(1 -1)" gradientUnits="userSpaceOnUse"><stop offset="0" stop-color="#71b9b6"/><stop offset=".18" stop-color="#6ab1b1"/><stop offset=".45" stop-color="#589ea5"/><stop offset=".77" stop-color="#3a7e91"/><stop offset="1" stop-color="#216380"/></linearGradient><linearGradient id="f" x1="0" y1="564.94" x2="44.29" y2="564.94" gradientTransform="translate(0 922.1) scale(1 -1)" gradientUnits="userSpaceOnUse"><stop offset="0" stop-color="#71b9b6"/><stop offset=".18" stop-color="#6ab1b1"/><stop offset=".45" stop-color="#589ea5"/><stop offset=".77" stop-color="#3a7e91"/><stop offset="1" stop-color="#216380"/></linearGradient><linearGradient id="g" x1="67.96" y1="564.93" x2="127.67" y2="564.93" gradientTransform="translate(0 922.1) scale(1 -1)" gradientUnits="userSpaceOnUse"><stop offset="0" stop-color="#71b9b6"/><stop offset=".18" stop-color="#6ab1b1"/><stop offset=".45" stop-color="#589ea5"/><stop offset=".77" stop-color="#3a7e91"/><stop offset="1" stop-color="#216380"/></linearGradient><linearGradient id="h" x1="150.79" y1="565.32" x2="200.06" y2="565.32" gradientTransform="translate(0 922.1) scale(1 -1)" gradientUnits="userSpaceOnUse"><stop offset="0" stop-color="#71b9b6"/><stop offset=".18" stop-color="#6ab1b1"/><stop offset=".45" stop-color="#589ea5"/><stop offset=".77" stop-color="#3a7e91"/><stop offset="1" stop-color="#216380"/></linearGradient><linearGradient id="i" x1="231.9" y1="564.94" x2="278.32" y2="564.94" gradientTransform="translate(0 922.1) scale(1 -1)" gradientUnits="userSpaceOnUse"><stop offset="0" stop-color="#71b9b6"/><stop offset=".18" stop-color="#6ab1b1"/><stop offset=".45" stop-color="#589ea5"/><stop offset=".77" stop-color="#3a7e91"/><stop offset="1" stop-color="#216380"/></linearGradient><linearGradient id="j" x1="303.73" y1="564.94" x2="348.02" y2="564.94" gradientTransform="translate(0 922.1) scale(1 -1)" gradientUnits="userSpaceOnUse"><stop offset="0" stop-color="#71b9b6"/><stop offset=".18" stop-color="#6ab1b1"/><stop offset=".45" stop-color="#589ea5"/><stop offset=".77" stop-color="#3a7e91"/><stop offset="1" stop-color="#216380"/></linearGradient><linearGradient id="k" x1="368.52" y1="564.93" x2="415.57" y2="564.93" gradientTransform="translate(0 922.1) scale(1 -1)" gradientUnits="userSpaceOnUse"><stop offset="0" stop-color="#71b9b6"/><stop offset=".18" stop-color="#6ab1b1"/><stop offset=".45" stop-color="#589ea5"/><stop offset=".77" stop-color="#3a7e91"/><stop offset="1" stop-color="#216380"/></linearGradient><linearGradient id="l" x1="440.27" y1="565.33" x2="489.54" y2="565.33" gradientTransform="translate(0 922.1) scale(1 -1)" gradientUnits="userSpaceOnUse"><stop offset="0" stop-color="#71b9b6"/><stop offset=".18" stop-color="#6ab1b1"/><stop offset=".45" stop-color="#589ea5"/><stop offset=".77" stop-color="#3a7e91"/><stop offset="1" stop-color="#216380"/></linearGradient><linearGradient id="m" x1="519.79" y1="564.93" x2="569.06" y2="564.93" gradientTransform="translate(0 922.1) scale(1 -1)" gradientUnits="userSpaceOnUse"><stop offset="0" stop-color="#71b9b6"/><stop offset=".18" stop-color="#6ab1b1"/><stop offset=".45" stop-color="#589ea5"/><stop offset=".77" stop-color="#3a7e91"/><stop offset="1" stop-color="#216380"/></linearGradient><linearGradient id="n" x1="598.2" y1="564.93" x2="652.68" y2="564.93" gradientTransform="translate(0 922.1) scale(1 -1)" gradientUnits="userSpaceOnUse"><stop offset="0" stop-color="#71b9b6"/><stop offset=".18" stop-color="#6ab1b1"/><stop offset=".45" stop-color="#589ea5"/><stop offset=".77" stop-color="#3a7e91"/><stop offset="1" stop-color="#216380"/></linearGradient></defs><g><path class="aa" d="M359.55,197.4c-8.03,2.88-16.48,4.62-25.11,5.02-28.72,1.33-54.93-11.9-73.46-33.39-4.98-5.78-9.81-12.31-18.92-12.16-6.09,.1-11.84,3.71-14.41,9.23-4.67,10,1.49,20.42,8.32,28.26,35.77,41.07,97.61,52.91,145.82,27.56,54.58-28.7,79.18-98.36,52.93-154.51-12.59-26.94-35.85-49.07-63.44-60.27-14.73-5.98-33.04-8.57-55.23-6.35-8.7,.87-27.73,5.36-35.19,10.73-8.71,6.27-4.6,12.56,5.5,9.75,20.71-5.77,31.97-7.25,53.42-3.31,45.54,8.37,77.88,36.79,81.06,84.79,.42,6.35,.46,12.73-.21,19.06-3.61,34.5-29.01,64.09-61.08,75.59"/><path class="a`" d="M231.09,138.15c8.09-3.15,12.3-11.22,10.52-19.37-2.15-9.85-12.89-16.02-22.41-12.66-9.23,3.26-13.78,13.48-10.12,22.46,3.3,8.09,13.93,12.72,22.01,9.58"/><path class="p" d="M231.58,84c5.34-2.2,7.93-8.54,5.75-14.05-2.09-5.28-8.73-7.87-14.07-5.49-5.18,2.31-7.76,8.52-5.63,13.53,2.33,5.47,8.65,8.2,13.95,6.01"/><path class="o" d="M253.52,46.62c3.78-1.42,5.7-5.65,4.27-9.44-1.42-3.79-5.64-5.71-9.43-4.29-3.78,1.42-5.7,5.64-4.27,9.44,1.42,3.79,5.64,5.72,9.43,4.3"/></g><g><path class="r" d="M9.47,383.86c-3.99-1.22-7.14-2.82-9.47-4.83l3.56-8c2.27,1.79,5.06,3.26,8.36,4.39s6.61,1.7,9.94,1.7c4.12,0,7.19-.66,9.23-1.98,2.03-1.32,3.05-3.06,3.05-5.23,0-1.58-.57-2.89-1.7-3.92-1.14-1.03-2.57-1.83-4.32-2.42-1.74-.58-4.12-1.24-7.13-1.98-4.22-1-7.65-2.01-10.25-3.01-2.62-1-4.86-2.57-6.73-4.71s-2.81-5.03-2.81-8.68c0-3.06,.83-5.84,2.49-8.35,1.67-2.51,4.17-4.5,7.53-5.98,3.35-1.48,7.46-2.21,12.31-2.21,3.38,0,6.71,.42,9.98,1.26,3.27,.85,6.1,2.06,8.48,3.64l-3.25,8c-2.43-1.42-4.96-2.51-7.6-3.24-2.64-.74-5.2-1.11-7.68-1.11-4.07,0-7.09,.69-9.07,2.06s-2.97,3.2-2.97,5.46c0,1.58,.57,2.88,1.7,3.88,1.14,1,2.57,1.79,4.32,2.37,1.74,.58,4.12,1.25,7.13,1.98,4.12,.95,7.5,1.94,10.14,2.97,2.64,1.03,4.9,2.6,6.77,4.71,1.87,2.11,2.81,4.96,2.81,8.56,0,3.06-.83,5.83-2.5,8.32-1.66,2.48-4.18,4.46-7.56,5.94s-7.5,2.22-12.35,2.22c-4.28,0-8.41-.6-12.4-1.82"/><path class="q" d="M82.53,382c-4.54-2.46-8.1-5.86-10.69-10.22-2.59-4.35-3.88-9.22-3.88-14.61s1.29-10.26,3.88-14.61c2.59-4.35,6.14-7.76,10.69-10.22,4.54-2.46,9.64-3.68,15.28-3.68s10.75,1.23,15.29,3.68c4.54,2.46,8.1,5.85,10.69,10.18s3.88,9.22,3.88,14.66-1.3,10.32-3.88,14.65c-2.59,4.33-6.15,7.72-10.69,10.18s-9.64,3.68-15.29,3.68-10.74-1.23-15.28-3.68m25.27-7.84c2.96-1.66,5.28-3.99,6.97-6.97s2.53-6.32,2.53-10.02-.84-7.03-2.53-10.02c-1.69-2.98-4.01-5.31-6.97-6.97s-6.28-2.49-9.98-2.49-7.02,.83-9.98,2.49c-2.96,1.67-5.28,3.99-6.97,6.97s-2.53,6.32-2.53,10.02,.84,7.03,2.53,10.02c1.69,2.98,4.01,5.31,6.97,6.97,2.95,1.66,6.28,2.5,9.98,2.5s7.02-.84,9.98-2.5"/><path class="t" d="M188.42,331.59c3.7,1.96,6.56,4.85,8.59,8.68s3.05,8.46,3.05,13.9v30.73h-10.3v-14.25h-28.83v14.25h-10.14v-30.73c0-5.44,1.01-10.07,3.05-13.9,2.03-3.83,4.9-6.72,8.59-8.68,3.7-1.95,8.02-2.93,12.99-2.93s9.29,.98,12.99,2.93m1.35,30.41v-8.79c0-5.12-1.27-8.99-3.8-11.61-2.53-2.61-6.07-3.91-10.61-3.91s-8.08,1.3-10.62,3.91c-2.53,2.62-3.8,6.48-3.8,11.61v8.79h28.83Z"/><path class="s" d="M267.27,331.82c3.56,1.58,6.3,3.86,8.2,6.81,1.9,2.95,2.85,6.46,2.85,10.53s-.95,7.51-2.85,10.49-4.63,5.27-8.2,6.85c-3.56,1.58-7.75,2.38-12.56,2.38h-12.51v16h-10.3v-55.44h22.8c4.8,0,8.99,.79,12.56,2.37m-2.81,25.5c2.32-1.9,3.49-4.62,3.49-8.16s-1.17-6.26-3.49-8.16c-2.33-1.9-5.73-2.85-10.22-2.85h-12.03v22.02h12.03c4.49,0,7.89-.95,10.22-2.85"/><path class="v" d="M313.2,383.86c-3.99-1.22-7.14-2.82-9.47-4.83l3.56-8c2.27,1.79,5.06,3.26,8.36,4.39s6.61,1.7,9.94,1.7c4.12,0,7.19-.66,9.23-1.98,2.03-1.32,3.05-3.06,3.05-5.23,0-1.58-.57-2.89-1.71-3.92-1.13-1.03-2.57-1.83-4.31-2.42-1.74-.58-4.12-1.24-7.13-1.98-4.22-1-7.65-2.01-10.25-3.01-2.62-1-4.86-2.57-6.73-4.71-1.87-2.14-2.81-5.03-2.81-8.68,0-3.06,.83-5.84,2.49-8.35,1.67-2.51,4.17-4.5,7.53-5.98,3.35-1.48,7.46-2.21,12.31-2.21,3.38,0,6.71,.42,9.98,1.26,3.27,.85,6.1,2.06,8.48,3.64l-3.25,8c-2.43-1.42-4.96-2.51-7.6-3.24-2.64-.74-5.2-1.11-7.68-1.11-4.07,0-7.09,.69-9.07,2.06s-2.97,3.2-2.97,5.46c0,1.58,.57,2.88,1.7,3.88,1.14,1,2.57,1.79,4.32,2.37,1.74,.58,4.12,1.25,7.13,1.98,4.12,.95,7.5,1.94,10.14,2.97,2.64,1.03,4.9,2.6,6.77,4.71,1.87,2.11,2.81,4.96,2.81,8.56,0,3.06-.83,5.83-2.5,8.32-1.66,2.48-4.18,4.46-7.56,5.94s-7.5,2.22-12.35,2.22c-4.28,0-8.41-.6-12.4-1.82"/><polygon class="u" points="386.9 338.16 368.52 338.16 368.52 329.45 415.57 329.45 415.57 338.16 397.19 338.16 397.19 384.89 386.9 384.89 386.9 338.16"/><path class="x" d="M477.9,331.59c3.7,1.95,6.56,4.85,8.59,8.67,2.03,3.83,3.05,8.46,3.05,13.9v30.73h-10.3v-14.26h-28.83v14.26h-10.14v-30.73c0-5.44,1.01-10.08,3.05-13.9,2.03-3.83,4.9-6.72,8.59-8.67,3.7-1.95,8.02-2.93,12.99-2.93s9.29,.98,12.99,2.93m-2.46,10.02c-2.53-2.62-6.07-3.92-10.61-3.92s-8.08,1.3-10.62,3.92c-2.53,2.62-3.8,6.48-3.8,11.6v8.8h28.83v-8.8c0-5.12-1.27-8.99-3.8-11.6"/><polygon class="w" points="569.06 329.45 569.06 384.89 560.58 384.89 530.01 347.35 530.01 384.89 519.79 384.89 519.79 329.45 528.27 329.45 558.84 366.99 558.84 329.45 569.06 329.45"/><path class="y" d="M598.2,329.45h24.23c5.91,0,11.17,1.15,15.76,3.45s8.16,5.55,10.69,9.74,3.8,9.04,3.8,14.53-1.27,10.34-3.8,14.53c-2.53,4.2-6.1,7.45-10.69,9.74-4.6,2.3-9.85,3.45-15.76,3.45h-24.23v-55.44h0Zm23.76,46.73c4.06,0,7.64-.78,10.73-2.34,3.09-1.55,5.47-3.77,7.13-6.65,1.67-2.88,2.5-6.22,2.5-10.02s-.83-7.14-2.5-10.02c-1.66-2.88-4.04-5.09-7.13-6.65-3.08-1.55-6.67-2.34-10.73-2.34h-13.46v38.02h13.46Z"/></g></svg>