<svg width="131" height="78" viewBox="0 0 131 78" fill="none" xmlns="http://www.w3.org/2000/svg">
<g clip-path="url(#clip0_162_56)">
<path d="M72.11 39.5899C70.5 40.1699 68.8 40.5199 67.07 40.5999C61.31 40.8699 56.05 38.2099 52.34 33.8999C51.34 32.7399 50.37 31.4299 48.55 31.4599C47.33 31.4799 46.18 32.1999 45.66 33.3099C44.72 35.3199 45.96 37.4099 47.33 38.9799C54.5 47.2199 66.91 49.5899 76.58 44.5099C87.53 38.7499 92.46 24.7799 87.2 13.5199C84.67 8.11991 80.01 3.67991 74.48 1.42991C71.53 0.229906 67.85 -0.290094 63.4 0.159906C61.66 0.329906 57.84 1.22991 56.34 2.30991C54.59 3.56991 55.42 4.82991 57.44 4.26991C61.59 3.10991 63.85 2.81991 68.15 3.60991C77.28 5.28991 83.77 10.9899 84.41 20.6199C84.49 21.8899 84.5 23.1699 84.37 24.4399C83.65 31.3599 78.55 37.2899 72.12 39.5999" fill="white"/>
<path d="M46.35 27.71C47.97 27.08 48.82 25.46 48.46 23.82C48.03 21.84 45.87 20.61 43.97 21.28C42.12 21.93 41.21 23.98 41.94 25.78C42.6 27.4 44.73 28.33 46.35 27.7" fill="white"/>
<path d="M46.4499 16.85C47.5199 16.41 48.0399 15.14 47.5999 14.03C47.1799 12.97 45.8499 12.45 44.7799 12.93C43.7399 13.39 43.2199 14.64 43.6499 15.64C44.1199 16.74 45.3799 17.28 46.4499 16.85Z" fill="white"/>
<path d="M50.8399 9.34991C51.5999 9.06991 51.9799 8.21991 51.6999 7.45991C51.4099 6.69991 50.5699 6.30991 49.8099 6.59991C49.0499 6.87991 48.6699 7.72991 48.9499 8.48991C49.2399 9.24991 50.0799 9.63991 50.8399 9.34991Z" fill="white"/>
<path d="M1.9 76.9899C1.1 76.7499 0.47 76.4199 0 76.0199L0.71 74.4199C1.17 74.7799 1.72 75.0699 2.39 75.2999C3.05 75.5299 3.72 75.6399 4.38 75.6399C5.21 75.6399 5.82 75.5099 6.23 75.2399C6.64 74.9799 6.84 74.6299 6.84 74.1899C6.84 73.8699 6.73 73.6099 6.5 73.3999C6.27 73.1899 5.98 73.0299 5.63 72.9099C5.28 72.7899 4.8 72.6599 4.2 72.5099C3.35 72.3099 2.67 72.1099 2.14 71.9099C1.62 71.7099 1.17 71.3899 0.79 70.9699C0.41 70.5399 0.23 69.9599 0.23 69.2299C0.23 68.6199 0.4 68.0599 0.73 67.5599C1.06 67.0599 1.57 66.6599 2.24 66.3599C2.91 66.0599 3.74 65.9199 4.71 65.9199C5.39 65.9199 6.06 65.9999 6.71 66.1699C7.37 66.3399 7.93 66.5799 8.41 66.8999L7.76 68.4999C7.27 68.2099 6.76 67.9999 6.24 67.8499C5.71 67.6999 5.2 67.6299 4.7 67.6299C3.88 67.6299 3.28 67.7699 2.88 68.0399C2.48 68.3099 2.28 68.6799 2.28 69.1399C2.28 69.4599 2.39 69.7199 2.62 69.9199C2.85 70.1199 3.14 70.2799 3.49 70.3999C3.84 70.5199 4.32 70.6499 4.92 70.7999C5.75 70.9899 6.42 71.1899 6.95 71.3999C7.48 71.6099 7.93 71.9199 8.31 72.3399C8.69 72.7599 8.87 73.3399 8.87 74.0599C8.87 74.6699 8.7 75.2299 8.37 75.7299C8.04 76.2299 7.53 76.6199 6.85 76.9199C6.17 77.2199 5.35 77.3599 4.37 77.3599C3.51 77.3599 2.68 77.2399 1.88 76.9899" fill="white"/>
<path d="M16.5499 76.6099C15.6399 76.1199 14.9299 75.4299 14.4099 74.5599C13.8899 73.6899 13.6299 72.7099 13.6299 71.6299C13.6299 70.5499 13.8899 69.5699 14.4099 68.6999C14.9299 67.8299 15.6399 67.1399 16.5499 66.6499C17.4599 66.1599 18.4799 65.9099 19.6199 65.9099C20.7599 65.9099 21.7799 66.1599 22.6899 66.6499C23.5999 67.1399 24.3099 67.8199 24.8299 68.6899C25.3499 69.5599 25.6099 70.5399 25.6099 71.6299C25.6099 72.7199 25.3499 73.6999 24.8299 74.5699C24.3099 75.4399 23.5999 76.1199 22.6899 76.6099C21.7799 77.0999 20.7599 77.3499 19.6199 77.3499C18.4799 77.3499 17.4699 77.0999 16.5499 76.6099ZM21.6199 75.0399C22.2099 74.7099 22.6799 74.2399 23.0199 73.6399C23.3599 73.0399 23.5299 72.3699 23.5299 71.6299C23.5299 70.8899 23.3599 70.2199 23.0199 69.6199C22.6799 69.0199 22.2199 68.5599 21.6199 68.2199C21.0299 67.8899 20.3599 67.7199 19.6199 67.7199C18.8799 67.7199 18.2099 67.8899 17.6199 68.2199C17.0299 68.5499 16.5599 69.0199 16.2199 69.6199C15.8799 70.2199 15.7099 70.8899 15.7099 71.6299C15.7099 72.3699 15.8799 73.0399 16.2199 73.6399C16.5599 74.2399 17.0199 74.6999 17.6199 75.0399C18.2099 75.3699 18.8799 75.5399 19.6199 75.5399C20.3599 75.5399 21.0299 75.3699 21.6199 75.0399Z" fill="white"/>
<path d="M37.7902 66.4999C38.5302 66.8899 39.1102 67.4699 39.5102 68.2399C39.9202 69.0099 40.1202 69.9399 40.1202 71.0299V77.1899H38.0502V74.3299H32.2702V77.1899H30.2402V71.0299C30.2402 69.9399 30.4402 69.0099 30.8502 68.2399C31.2602 67.4699 31.8302 66.8899 32.5702 66.4999C33.3102 66.1099 34.1802 65.9099 35.1802 65.9099C36.1802 65.9099 37.0402 66.1099 37.7902 66.4999ZM38.0602 72.5999V70.8399C38.0602 69.8099 37.8102 69.0399 37.3002 68.5099C36.7902 67.9899 36.0802 67.7199 35.1702 67.7199C34.2602 67.7199 33.5502 67.9799 33.0402 68.5099C32.5302 69.0299 32.2802 69.8099 32.2802 70.8399V72.5999H38.0602Z" fill="white"/>
<path d="M53.6 66.5498C54.31 66.8698 54.86 67.3198 55.24 67.9198C55.62 68.5098 55.81 69.2198 55.81 70.0298C55.81 70.8398 55.62 71.5398 55.24 72.1298C54.86 72.7298 54.31 73.1898 53.6 73.4998C52.89 73.8198 52.05 73.9798 51.08 73.9798H48.57V77.1898H46.5V66.0698H51.07C52.03 66.0698 52.87 66.2298 53.59 66.5498M53.03 71.6698C53.5 71.2898 53.73 70.7398 53.73 70.0298C53.73 69.3198 53.5 68.7798 53.03 68.3898C52.56 68.0098 51.88 67.8198 50.98 67.8198H48.57V72.2398H50.98C51.88 72.2398 52.56 72.0498 53.03 71.6698Z" fill="white"/>
<path d="M62.8199 76.9899C62.0199 76.7499 61.3899 76.4199 60.9199 76.0199L61.6299 74.4199C62.0899 74.7799 62.6399 75.0699 63.3099 75.2999C63.9699 75.5299 64.6399 75.6399 65.2999 75.6399C66.1299 75.6399 66.7399 75.5099 67.1499 75.2399C67.5599 74.9799 67.7599 74.6299 67.7599 74.1899C67.7599 73.8699 67.6499 73.6099 67.4199 73.3999C67.1899 73.1899 66.8999 73.0299 66.5599 72.9099C66.2099 72.7899 65.7299 72.6599 65.1299 72.5099C64.2799 72.3099 63.5999 72.1099 63.0699 71.9099C62.5499 71.7099 62.0999 71.3899 61.7199 70.9699C61.3399 70.5399 61.1599 69.9599 61.1599 69.2299C61.1599 68.6199 61.3299 68.0599 61.6599 67.5599C61.9899 67.0599 62.4999 66.6599 63.1699 66.3599C63.8399 66.0599 64.6699 65.9199 65.6399 65.9199C66.3199 65.9199 66.9899 65.9999 67.6399 66.1699C68.2999 66.3399 68.8599 66.5799 69.3399 66.8999L68.6899 68.4999C68.1999 68.2099 67.6899 67.9999 67.1699 67.8499C66.6399 67.6999 66.1299 67.6299 65.6299 67.6299C64.8099 67.6299 64.2099 67.7699 63.8099 68.0399C63.4099 68.3099 63.2099 68.6799 63.2099 69.1399C63.2099 69.4599 63.3199 69.7199 63.5499 69.9199C63.7799 70.1199 64.0699 70.2799 64.4199 70.3999C64.7699 70.5199 65.2499 70.6499 65.8499 70.7999C66.6799 70.9899 67.3499 71.1899 67.8799 71.3999C68.4099 71.6099 68.8599 71.9199 69.2399 72.3399C69.6199 72.7599 69.7999 73.3399 69.7999 74.0599C69.7999 74.6699 69.6299 75.2299 69.2999 75.7299C68.9699 76.2299 68.4599 76.6199 67.7799 76.9199C67.0999 77.2199 66.2799 77.3599 65.2999 77.3599C64.4399 77.3599 63.6099 77.2399 62.8099 76.9899" fill="white"/>
<path d="M77.6002 67.8198H73.9102V66.0698H83.3502V67.8198H79.6602V77.1898H77.6002V67.8198Z" fill="white"/>
<path d="M95.8498 66.4999C96.5898 66.8899 97.1698 67.4699 97.5698 68.2399C97.9798 69.0099 98.1798 69.9399 98.1798 71.0299V77.1899H96.1098V74.3299H90.3298V77.1899H88.2998V71.0299C88.2998 69.9399 88.4998 69.0099 88.9098 68.2399C89.3198 67.4699 89.8898 66.8899 90.6298 66.4999C91.3698 66.1099 92.2398 65.9099 93.2398 65.9099C94.2398 65.9099 95.0998 66.1099 95.8498 66.4999ZM95.3598 68.5099C94.8498 67.9899 94.1398 67.7199 93.2298 67.7199C92.3198 67.7199 91.6098 67.9799 91.0998 68.5099C90.5898 69.0299 90.3398 69.8099 90.3398 70.8399V72.5999H96.1198V70.8399C96.1198 69.8099 95.8698 69.0399 95.3598 68.5099Z" fill="white"/>
<path d="M114.13 66.0698V77.1898H112.43L106.3 69.6598V77.1898H104.25V66.0698H105.95L112.08 73.5998V66.0698H114.13Z" fill="white"/>
<path d="M119.98 66.0698H124.84C126.03 66.0698 127.08 66.2998 128 66.7598C128.92 67.2198 129.64 67.8698 130.14 68.7098C130.65 69.5498 130.9 70.5198 130.9 71.6198C130.9 72.7198 130.65 73.6898 130.14 74.5298C129.63 75.3698 128.92 76.0198 128 76.4798C127.08 76.9398 126.02 77.1698 124.84 77.1698H119.98V66.0498V66.0698ZM124.75 75.4398C125.56 75.4398 126.28 75.2798 126.9 74.9698C127.52 74.6598 128 74.2098 128.33 73.6398C128.66 73.0598 128.83 72.3898 128.83 71.6298C128.83 70.8698 128.66 70.1998 128.33 69.6198C128 69.0398 127.52 68.5998 126.9 68.2898C126.28 67.9798 125.56 67.8198 124.75 67.8198H122.05V75.4398H124.75Z" fill="white"/>
</g>
<defs>
<clipPath id="clip0_162_56">
<rect width="130.9" height="77.35" fill="white"/>
</clipPath>
</defs>
</svg>
